<svg width="330" height="419" viewBox="0 0 330 419" fill="none" xmlns="http://www.w3.org/2000/svg">
<path d="M78.9609 405.457H73.8721L54.5449 375.873V405.457H49.4561V367.066H54.5449L73.9248 396.782V367.066H78.9609V405.457ZM85.8955 390.929C85.8955 388.134 86.4404 385.62 87.5303 383.388C88.6377 381.155 90.167 379.433 92.1182 378.22C94.0869 377.007 96.3281 376.4 98.8418 376.4C102.727 376.4 105.864 377.745 108.255 380.435C110.663 383.124 111.867 386.701 111.867 391.166V391.509C111.867 394.286 111.331 396.782 110.259 398.997C109.204 401.194 107.684 402.908 105.697 404.139C103.729 405.369 101.461 405.984 98.8945 405.984C95.0273 405.984 91.8896 404.64 89.4814 401.95C87.0908 399.261 85.8955 395.701 85.8955 391.271V390.929ZM90.7998 391.509C90.7998 394.673 91.5293 397.213 92.9883 399.129C94.4648 401.045 96.4336 402.003 98.8945 402.003C101.373 402.003 103.342 401.036 104.801 399.103C106.26 397.151 106.989 394.427 106.989 390.929C106.989 387.8 106.242 385.269 104.748 383.335C103.271 381.384 101.303 380.408 98.8418 380.408C96.4336 380.408 94.4912 381.366 93.0146 383.282C91.5381 385.198 90.7998 387.94 90.7998 391.509ZM124.603 370.02V376.928H129.929V380.698H124.603V398.391C124.603 399.533 124.84 400.395 125.314 400.975C125.789 401.537 126.598 401.818 127.74 401.818C128.303 401.818 129.076 401.713 130.061 401.502V405.457C128.777 405.809 127.529 405.984 126.316 405.984C124.137 405.984 122.493 405.325 121.386 404.007C120.278 402.688 119.725 400.816 119.725 398.391V380.698H114.53V376.928H119.725V370.02H124.603ZM151.444 405.457V380.698H146.936V376.928H151.444V374.001C151.444 370.942 152.262 368.578 153.896 366.908C155.531 365.238 157.843 364.403 160.831 364.403C161.956 364.403 163.072 364.553 164.18 364.852L163.916 368.807C163.09 368.648 162.211 368.569 161.279 368.569C159.697 368.569 158.476 369.035 157.614 369.967C156.753 370.881 156.322 372.199 156.322 373.922V376.928H162.413V380.698H156.322V405.457H151.444ZM166.526 390.929C166.526 388.134 167.071 385.62 168.161 383.388C169.269 381.155 170.798 379.433 172.749 378.22C174.718 377.007 176.959 376.4 179.473 376.4C183.357 376.4 186.495 377.745 188.886 380.435C191.294 383.124 192.498 386.701 192.498 391.166V391.509C192.498 394.286 191.962 396.782 190.89 398.997C189.835 401.194 188.314 402.908 186.328 404.139C184.359 405.369 182.092 405.984 179.525 405.984C175.658 405.984 172.521 404.64 170.112 401.95C167.722 399.261 166.526 395.701 166.526 391.271V390.929ZM171.431 391.509C171.431 394.673 172.16 397.213 173.619 399.129C175.096 401.045 177.064 402.003 179.525 402.003C182.004 402.003 183.973 401.036 185.432 399.103C186.891 397.151 187.62 394.427 187.62 390.929C187.62 387.8 186.873 385.269 185.379 383.335C183.902 381.384 181.934 380.408 179.473 380.408C177.064 380.408 175.122 381.366 173.646 383.282C172.169 385.198 171.431 387.94 171.431 391.509ZM216.229 402.636C214.33 404.868 211.544 405.984 207.87 405.984C204.829 405.984 202.509 405.105 200.909 403.348C199.327 401.572 198.527 398.953 198.51 395.49V376.928H203.388V395.358C203.388 399.683 205.146 401.845 208.661 401.845C212.388 401.845 214.866 400.456 216.097 397.679V376.928H220.975V405.457H216.334L216.229 402.636ZM233.024 376.928L233.183 380.514C235.362 377.771 238.21 376.4 241.726 376.4C247.755 376.4 250.796 379.802 250.849 386.604V405.457H245.971V386.578C245.953 384.521 245.479 383.001 244.547 382.017C243.633 381.032 242.2 380.54 240.249 380.54C238.667 380.54 237.278 380.962 236.083 381.806C234.888 382.649 233.956 383.757 233.288 385.128V405.457H228.41V376.928H233.024ZM257.019 390.955C257.019 386.578 258.056 383.062 260.13 380.408C262.204 377.736 264.92 376.4 268.277 376.4C271.617 376.4 274.263 377.543 276.214 379.828V364.957H281.092V405.457H276.609L276.372 402.398C274.421 404.789 271.705 405.984 268.225 405.984C264.92 405.984 262.222 404.631 260.13 401.924C258.056 399.217 257.019 395.684 257.019 391.324V390.955ZM261.896 391.509C261.896 394.743 262.564 397.274 263.9 399.103C265.236 400.931 267.082 401.845 269.438 401.845C272.531 401.845 274.79 400.456 276.214 397.679V384.574C274.755 381.885 272.514 380.54 269.49 380.54C267.1 380.54 265.236 381.463 263.9 383.309C262.564 385.154 261.896 387.888 261.896 391.509Z" fill="url(#paint0_linear)"/>
<g opacity="0.47" clip-path="url(#clip0)">
<path d="M122.78 3.44717C122.78 3.44717 159.291 -3.95355 192.512 3.44717C212.823 7.972 255.626 18.7019 265.723 43.0218C275.819 67.3418 227.195 88.0904 251.085 112.762C261.393 123.406 310.854 137.442 308.072 206.478C305.289 275.515 232.814 317.599 132.095 315.723C31.3769 313.847 -26.7503 222.265 12.207 177.157C51.1643 132.057 67.9272 131.924 50.2734 95.202C32.6195 58.4797 57.127 13.9582 122.78 3.44717Z" fill="#7166F8"/>
<path opacity="0.7" d="M122.78 3.44717C122.78 3.44717 159.291 -3.95355 192.512 3.44717C212.823 7.972 255.626 18.7019 265.723 43.0218C275.819 67.3418 227.195 88.0904 251.085 112.762C261.393 123.406 310.854 137.442 308.072 206.478C305.289 275.515 232.814 317.599 132.095 315.723C31.3769 313.847 -26.7503 222.265 12.207 177.157C51.1643 132.057 67.9272 131.924 50.2734 95.202C32.6195 58.4797 57.127 13.9582 122.78 3.44717Z" fill="white"/>
<path d="M53.1335 116.021L59.9324 135.902L27.3287 147.054L19.2559 123.46L51.8675 112.309L53.1335 116.021Z" stroke="#263238" stroke-miterlimit="10" stroke-linecap="round" stroke-linejoin="round"/>
<path d="M56.5173 125.914L59.9324 135.902L27.3286 147.054L25.6562 142.162L32.2286 132.205L42.9194 136.371L50.5624 123.484L56.5173 125.914Z" stroke="#263238" stroke-miterlimit="10" stroke-linecap="round" stroke-linejoin="round"/>
<path d="M36.1594 124.664C36.7924 126.516 35.8077 128.532 33.9478 129.173C32.0956 129.806 30.0794 128.822 29.4386 126.962C28.8056 125.109 29.7902 123.093 31.6502 122.452C33.5101 121.819 35.5264 122.812 36.1594 124.664Z" stroke="#263238" stroke-miterlimit="10" stroke-linecap="round" stroke-linejoin="round"/>
<path d="M247.428 279.204L242.934 299.726L209.268 292.356L214.605 267.997L248.272 275.367L247.428 279.204Z" stroke="#263238" stroke-miterlimit="10" stroke-linecap="round" stroke-linejoin="round"/>
<path d="M215.941 287.104L239.066 292.169" stroke="#263238" stroke-miterlimit="10" stroke-linecap="round" stroke-linejoin="round"/>
<path d="M217.841 276.312C217.841 276.312 215.488 287.058 227.492 289.683C239.504 292.309 241.856 281.571 241.856 281.571" stroke="#263238" stroke-miterlimit="10" stroke-linecap="round" stroke-linejoin="round"/>
<path d="M218.849 276.531C218.724 277.086 218.177 277.445 217.614 277.32C217.059 277.195 216.7 276.648 216.825 276.086C216.95 275.523 217.497 275.171 218.059 275.296C218.622 275.421 218.974 275.976 218.849 276.531Z" fill="white" stroke="#263238" stroke-miterlimit="10" stroke-linecap="round" stroke-linejoin="round"/>
<path d="M242.872 281.79C242.747 282.345 242.2 282.705 241.637 282.58C241.082 282.455 240.723 281.908 240.848 281.345C240.973 280.79 241.52 280.431 242.082 280.556C242.637 280.681 242.989 281.236 242.872 281.79Z" fill="white" stroke="#263238" stroke-miterlimit="10" stroke-linecap="round" stroke-linejoin="round"/>
<path d="M216.566 286.339L214.787 285.949L214.398 287.728L216.176 288.117L216.566 286.339Z" fill="white" stroke="#263238" stroke-miterlimit="10" stroke-linecap="round" stroke-linejoin="round"/>
<path d="M228.596 289.003L226.817 288.613L226.428 290.392L228.206 290.782L228.596 289.003Z" fill="white" stroke="#263238" stroke-miterlimit="10" stroke-linecap="round" stroke-linejoin="round"/>
<path d="M240.58 291.597L238.801 291.208L238.412 292.986L240.19 293.376L240.58 291.597Z" fill="white" stroke="#263238" stroke-miterlimit="10" stroke-linecap="round" stroke-linejoin="round"/>
<path d="M91.6688 55.9085L83.1584 75.1175L51.6487 61.1679L61.7455 38.364L93.2552 52.3214L91.6688 55.9085Z" stroke="#263238" stroke-miterlimit="10" stroke-linecap="round" stroke-linejoin="round"/>
<path d="M301.71 211.691L294.38 231.376L262.081 219.349L270.786 195.983L303.085 208.01L301.71 211.691Z" stroke="#263238" stroke-miterlimit="10" stroke-linecap="round" stroke-linejoin="round"/>
<path d="M279.984 207.361L271.888 211.065L275.592 219.162" stroke="#263238" stroke-miterlimit="10" stroke-linecap="round" stroke-linejoin="round"/>
<path d="M284.291 222.405L292.387 218.7L288.682 210.604" stroke="#263238" stroke-miterlimit="10" stroke-linecap="round" stroke-linejoin="round"/>
<path d="M285.752 209.495L278.523 220.271" stroke="#263238" stroke-miterlimit="10" stroke-linecap="round" stroke-linejoin="round"/>
<path d="M269.497 28.7125L262.3 48.453L229.922 36.6525L238.464 13.2234L270.841 25.0239L269.497 28.7125Z" stroke="#263238" stroke-miterlimit="10" stroke-linecap="round" stroke-linejoin="round"/>
<path d="M55.7985 256.884L22.1318 249.523L26.727 228.516L60.5108 235.909L55.7985 256.884Z" stroke="#263238" stroke-miterlimit="10" stroke-linecap="round" stroke-linejoin="round"/>
<path d="M34.3621 233.776L54.0322 238.082" stroke="#263238" stroke-miterlimit="10" stroke-linecap="round" stroke-linejoin="round"/>
<path d="M31.1814 235.057L53.6258 239.965" stroke="#263238" stroke-miterlimit="10" stroke-linecap="round" stroke-linejoin="round"/>
<path d="M30.7673 236.948L53.2117 241.856" stroke="#263238" stroke-miterlimit="10" stroke-linecap="round" stroke-linejoin="round"/>
<path d="M30.353 238.832L52.7974 243.74" stroke="#263238" stroke-miterlimit="10" stroke-linecap="round" stroke-linejoin="round"/>
<path d="M29.939 240.723L52.3834 245.631" stroke="#263238" stroke-miterlimit="10" stroke-linecap="round" stroke-linejoin="round"/>
<path d="M29.5247 242.606L51.9691 247.522" stroke="#263238" stroke-miterlimit="10" stroke-linecap="round" stroke-linejoin="round"/>
<path d="M29.1104 244.498L51.5548 249.406" stroke="#263238" stroke-miterlimit="10" stroke-linecap="round" stroke-linejoin="round"/>
<path d="M28.7041 246.389L48.3742 250.687" stroke="#263238" stroke-miterlimit="10" stroke-linecap="round" stroke-linejoin="round"/>
<path d="M220.865 100.211H94.9277L79.2119 22.0386H236.581L220.865 100.211Z" fill="#263238"/>
<path d="M91.0281 24.5784L67.8335 182.307H247.959L224.772 24.5784" fill="#7166F8"/>
<path opacity="0.3" d="M247.967 182.307H67.8335L77.5318 116.349H238.269L247.967 182.307Z" fill="black" fill-opacity="0.7"/>
<path d="M91.0281 24.5784L67.8335 182.307H247.959L224.772 24.5784" stroke="#263238" stroke-miterlimit="10" stroke-linecap="round" stroke-linejoin="round"/>
<path d="M219.872 24.5784H95.928L74.437 182.307H241.363L219.872 24.5784Z" fill="#263238"/>
<path d="M207.627 36.5977H140.348L139.582 34.8784C139.16 33.925 138.215 33.3076 137.167 33.3076H121.889C121.037 33.3076 120.35 33.9953 120.35 34.8472V36.6055H108.174C107.236 36.6055 106.541 37.4573 106.721 38.3795L116.661 87.8088H199.147L209.088 38.3795C209.26 37.4573 208.557 36.5977 207.627 36.5977Z" fill="#BFBFBF" stroke="#263238" stroke-miterlimit="10" stroke-linecap="round" stroke-linejoin="round"/>
<path d="M210.166 40.388L209.307 44.6549L200.476 88.5669C200.21 89.9189 199.022 90.8957 197.639 90.8957H118.161C116.778 90.8957 115.59 89.9189 115.325 88.5669L106.283 43.6156L105.634 40.388C105.454 39.4737 106.15 38.614 107.088 38.614H208.713C209.651 38.614 210.346 39.4737 210.166 40.388Z" fill="white"/>
<path opacity="0.4" d="M209.307 44.6549L200.476 88.5668C200.21 89.9188 199.022 90.8957 197.639 90.8957H118.161C116.778 90.8957 115.59 89.9188 115.325 88.5668L106.283 43.6155L209.307 44.6549Z" fill="#7166F8"/>
<path d="M210.166 40.388L209.307 44.6549L200.476 88.5669C200.21 89.9189 199.022 90.8957 197.639 90.8957H118.161C116.778 90.8957 115.59 89.9189 115.325 88.5669L106.283 43.6156L105.634 40.388C105.454 39.4737 106.15 38.614 107.088 38.614H208.713C209.651 38.614 210.346 39.4737 210.166 40.388Z" stroke="#263238" stroke-miterlimit="10" stroke-linecap="round" stroke-linejoin="round"/>
<path d="M208.814 47.9839H139.926L139.145 46.2646C138.715 45.3112 137.738 44.6938 136.667 44.6938H121.022C120.154 44.6938 119.443 45.3816 119.443 46.2256V47.9761H106.971C106.017 47.9761 105.298 48.8279 105.486 49.7423L115.661 99.0231H200.124L210.299 49.7423C210.495 48.8357 209.776 47.9839 208.814 47.9839Z" fill="#BFBFBF" stroke="#263238" stroke-miterlimit="10" stroke-linecap="round" stroke-linejoin="round"/>
<path d="M211.417 51.907L210.557 56.0802L201.499 99.9453C201.218 101.289 200.007 102.258 198.592 102.258H117.208C115.793 102.258 114.582 101.289 114.301 99.9453L105.212 55.9317L104.384 51.907C104.196 50.9927 104.915 50.1331 105.868 50.1331H209.932C210.885 50.1331 211.604 50.9927 211.417 51.907Z" fill="white"/>
<path opacity="0.4" d="M210.557 56.0801L201.5 99.9452C201.218 101.289 200.007 102.258 198.592 102.258H117.208C115.794 102.258 114.582 101.289 114.301 99.9452L105.212 55.9316L210.557 56.0801Z" fill="#7166F8"/>
<path d="M211.417 51.907L210.557 56.0802L201.499 99.9453C201.218 101.289 200.007 102.258 198.592 102.258H117.208C115.793 102.258 114.582 101.289 114.301 99.9453L105.212 55.9317L104.384 51.907C104.196 50.9927 104.915 50.1331 105.868 50.1331H209.932C210.885 50.1331 211.604 50.9927 211.417 51.907Z" stroke="#263238" stroke-miterlimit="10" stroke-linecap="round" stroke-linejoin="round"/>
<path d="M210.01 59.3704H139.512L138.715 57.6589C138.269 56.7055 137.277 56.0959 136.183 56.0959H120.17C119.279 56.0959 118.56 56.7837 118.56 57.6277V59.3782H105.798C104.821 59.3782 104.087 60.23 104.274 61.1366L114.692 110.269H201.124L211.542 61.1366C211.721 60.2222 210.987 59.3704 210.01 59.3704Z" fill="#BFBFBF" stroke="#263238" stroke-miterlimit="10" stroke-linecap="round" stroke-linejoin="round"/>
<path d="M211.143 61.6523H104.649C103.673 61.6523 102.938 62.5042 103.126 63.4107L113.277 111.308C113.558 112.652 114.809 113.621 116.255 113.621H199.546C200.992 113.621 202.234 112.652 202.523 111.308L212.675 63.4107C212.862 62.5042 212.128 61.6523 211.143 61.6523Z" fill="white" stroke="#263238" stroke-miterlimit="10" stroke-linecap="round" stroke-linejoin="round"/>
<path d="M211.198 68.4121H139.082L138.261 66.7085C137.808 65.7629 136.792 65.1455 135.667 65.1455H119.287C118.372 65.1455 117.638 65.8254 117.638 66.6694V68.4121H104.587C103.587 68.4121 102.836 69.264 103.032 70.1705L113.684 119.154H202.094L212.745 70.1705C212.956 69.264 212.198 68.4121 211.198 68.4121Z" fill="#BFBFBF" stroke="#263238" stroke-miterlimit="10" stroke-linecap="round" stroke-linejoin="round"/>
<path d="M212.362 70.8347H103.43C102.43 70.8347 101.68 71.6865 101.875 72.5931L112.261 120.35C112.55 121.686 113.824 122.655 115.301 122.655H200.499C201.976 122.655 203.25 121.694 203.539 120.35L213.925 72.5931C214.121 71.6787 213.363 70.8347 212.362 70.8347Z" fill="white" stroke="#263238" stroke-miterlimit="10" stroke-linecap="round" stroke-linejoin="round"/>
<path d="M212.394 77.4541H138.668L137.832 75.7505C137.371 74.8049 136.331 74.1953 135.182 74.1953H118.435C117.505 74.1953 116.747 74.8752 116.747 75.7192V77.4541H103.399C102.375 77.4541 101.61 78.2981 101.805 79.2047L112.691 128.048H203.078L213.965 79.2047C214.183 78.2981 213.417 77.4541 212.394 77.4541Z" fill="#BFBFBF" stroke="#263238" stroke-miterlimit="10" stroke-linecap="round" stroke-linejoin="round"/>
<path d="M213.581 80.0173H102.219C101.195 80.0173 100.422 80.8613 100.625 81.7679L103.235 93.4824L111.237 129.376C111.542 130.713 112.84 131.674 114.348 131.674H201.453C202.961 131.674 204.258 130.713 204.563 129.376L208.486 111.769L215.176 81.7679C215.379 80.8613 214.605 80.0173 213.581 80.0173Z" fill="white"/>
<path opacity="0.4" d="M103.235 93.4824L111.238 129.376C111.542 130.713 112.84 131.674 114.348 131.674H201.453C202.961 131.674 204.258 130.713 204.563 129.376L208.486 111.769L103.235 93.4824Z" fill="#7166F8"/>
<path d="M213.581 80.0173H102.219C101.195 80.0173 100.422 80.8613 100.625 81.7679L103.235 93.4824L111.237 129.376C111.542 130.713 112.84 131.674 114.348 131.674H201.453C202.961 131.674 204.258 130.713 204.563 129.376L208.486 111.769L215.176 81.7679C215.379 80.8613 214.605 80.0173 213.581 80.0173Z" stroke="#263238" stroke-miterlimit="10" stroke-linecap="round" stroke-linejoin="round"/>
<path d="M135.839 133.362L134.854 131.721C134.307 130.814 133.151 130.259 131.908 130.322L113.715 131.158C112.707 131.205 111.917 131.916 111.949 132.745L112.027 134.456L97.5302 135.12C96.4205 135.175 95.6234 136.042 95.8813 136.926L109.925 184.589L208.119 180.079L217.731 131.33C217.911 130.424 217.036 129.626 215.926 129.681L135.839 133.362Z" fill="#BFBFBF" stroke="#263238" stroke-miterlimit="10" stroke-linecap="round" stroke-linejoin="round"/>
<path d="M219.169 134.37L218.059 139.981L209.799 181.892C209.533 183.229 208.166 184.237 206.525 184.315L111.909 188.66C110.268 188.738 108.807 187.855 108.424 186.55L95.3653 142.24L94.7323 140.09C94.4744 139.207 95.2716 138.332 96.3813 138.285L217.364 132.721C218.481 132.674 219.349 133.471 219.169 134.37Z" fill="white"/>
<path opacity="0.4" d="M218.059 139.981L209.799 181.892C209.533 183.229 208.166 184.237 206.524 184.315L111.909 188.66C110.268 188.738 108.807 187.855 108.424 186.55L95.3652 142.239L218.059 139.981Z" fill="#7166F8"/>
<path d="M219.169 134.37L218.059 139.981L209.799 181.892C209.533 183.229 208.166 184.237 206.525 184.315L111.909 188.66C110.268 188.738 108.807 187.855 108.424 186.55L95.3653 142.24L94.7323 140.09C94.4744 139.207 95.2716 138.332 96.3813 138.285L217.364 132.721C218.481 132.674 219.349 133.471 219.169 134.37Z" stroke="#263238" stroke-miterlimit="10" stroke-linecap="round" stroke-linejoin="round"/>
<path d="M137.918 144.248L137.081 142.529C136.613 141.575 135.495 140.911 134.229 140.849L115.676 139.88C114.645 139.825 113.77 140.45 113.731 141.278L113.645 142.99L98.8588 142.216C97.7256 142.154 96.8269 142.943 97.0066 143.85L106.556 192.521L206.689 197.757L221.264 150.344C221.537 149.468 220.724 148.585 219.591 148.531L137.918 144.248Z" fill="#BFBFBF" stroke="#263238" stroke-miterlimit="10" stroke-linecap="round" stroke-linejoin="round"/>
<path d="M222.42 153.634L220.044 161.355L208.213 199.851C207.814 201.148 206.322 202.024 204.649 201.93L108.158 196.889C106.486 196.803 105.095 195.779 104.829 194.451L96.6627 152.821L95.5218 146.999C95.342 146.1 96.2407 145.311 97.3739 145.373L220.748 151.821C221.881 151.883 222.694 152.758 222.42 153.634Z" fill="white"/>
<path opacity="0.4" d="M220.044 161.355L208.213 199.851C207.814 201.148 206.321 202.024 204.649 201.93L108.158 196.889C106.486 196.803 105.095 195.78 104.829 194.451L96.6626 152.821L220.044 161.355Z" fill="#7166F8"/>
<path d="M222.42 153.634L220.044 161.355L208.213 199.851C207.814 201.148 206.322 202.024 204.649 201.93L108.158 196.889C106.486 196.803 105.095 195.779 104.829 194.451L96.6627 152.821L95.5218 146.999C95.342 146.1 96.2407 145.311 97.3739 145.373L220.748 151.821C221.881 151.883 222.694 152.758 222.42 153.634Z" stroke="#263238" stroke-miterlimit="10" stroke-linecap="round" stroke-linejoin="round"/>
<path d="M136.143 156.713L135.198 155.041C134.674 154.111 133.502 153.517 132.205 153.517H113.261C112.206 153.517 111.355 154.189 111.355 155.009V156.713H96.2562C95.0996 156.713 94.2321 157.541 94.4588 158.432L106.775 206.392H209.025L221.342 158.432C221.568 157.541 220.701 156.713 219.544 156.713H136.143Z" fill="#BFBFBF" stroke="#263238" stroke-miterlimit="10" stroke-linecap="round" stroke-linejoin="round"/>
<path d="M207.158 210.815H108.635C106.924 210.815 105.455 209.87 105.118 208.557L93.107 161.8C92.8803 160.909 93.7478 160.081 94.9044 160.081H220.881C222.037 160.081 222.905 160.909 222.678 161.8L210.667 208.557C210.338 209.87 208.869 210.815 207.158 210.815Z" fill="white" stroke="#263238" stroke-miterlimit="10" stroke-linecap="round" stroke-linejoin="round"/>
<path d="M135.722 168.099L134.76 166.435C134.229 165.512 133.025 164.911 131.705 164.911H112.394C111.323 164.911 110.448 165.575 110.448 166.395V168.099H95.0606C93.8806 168.099 92.9975 168.927 93.2241 169.811L105.783 217.622H210.01L222.569 169.811C222.803 168.927 221.912 168.099 220.732 168.099H135.722Z" fill="#BFBFBF" stroke="#263238" stroke-miterlimit="10" stroke-linecap="round" stroke-linejoin="round"/>
<path d="M208.111 222.178H107.682C105.939 222.178 104.438 221.24 104.095 219.927L91.8565 173.319C91.622 172.436 92.5129 171.608 93.693 171.608H222.107C223.288 171.608 224.171 172.436 223.944 173.319L211.706 219.927C211.354 221.24 209.854 222.178 208.111 222.178Z" fill="white" stroke="#263238" stroke-miterlimit="10" stroke-linecap="round" stroke-linejoin="round"/>
<path d="M228.523 276.047H87.2768L56.3611 188.371H259.439L228.523 276.047Z" fill="#7166F8"/>
<path opacity="0.3" d="M228.523 276.047H87.2768L56.3611 188.371H259.439L228.523 276.047Z" fill="black" fill-opacity="0.7"/>
<path d="M228.523 276.047H87.2768L56.3611 188.371H259.439L228.523 276.047Z" stroke="#263238" stroke-miterlimit="10" stroke-linecap="round" stroke-linejoin="round"/>
<path d="M256.751 176.836H59.0494L56.3611 188.371H259.439L256.751 176.836Z" fill="#7166F8" stroke="#263238" stroke-miterlimit="10" stroke-linecap="round" stroke-linejoin="round"/>
<path d="M108.877 228.54L106.892 247.256H208.9L206.923 228.54H202.422L203.703 241.903H112.089L113.379 228.54H108.877Z" fill="#BFBFBF" stroke="#263238" stroke-miterlimit="10" stroke-linecap="round" stroke-linejoin="round"/>
<path d="M208.134 251.562H107.666L106.892 247.256H208.9L208.134 251.562Z" fill="#757575" stroke="#263238" stroke-miterlimit="10" stroke-linecap="round" stroke-linejoin="round"/>
<path d="M202.422 228.54L201.789 233.502L202.422 241.903H203.703L202.422 228.54Z" fill="#757575" stroke="#263238" stroke-miterlimit="10" stroke-linecap="round" stroke-linejoin="round"/>
<path d="M113.379 228.54L114.004 233.502L113.379 241.903H112.089L113.379 228.54Z" fill="#757575" stroke="#263238" stroke-miterlimit="10" stroke-linecap="round" stroke-linejoin="round"/>
<path d="M190.762 219.154H125.031L121.897 203.266H193.904L190.762 219.154Z" fill="white" stroke="#263238" stroke-miterlimit="10" stroke-linecap="round" stroke-linejoin="round"/>
<path d="M149.32 211.05H151.133V212.379H149.335L149.366 216.114H147.999L147.843 206.776H151.656L151.648 208.174H149.296L149.32 211.05Z" fill="#263238"/>
<path d="M152.352 206.783H153.79L153.633 216.122H152.266L152.352 206.783Z" fill="#263238"/>
<path d="M154.837 206.783H156.283L156.04 214.848H158.307L158.252 216.122H154.642L154.837 206.783Z" fill="#263238"/>
<path d="M160.495 210.839H162.425L162.339 212.175H160.425L160.276 214.848H162.652L162.566 216.122H158.838L159.276 206.783H163.207L163.113 208.182H160.644L160.495 210.839Z" fill="#263238"/>
<path d="M166.051 206.666C167.45 206.666 168.091 207.565 167.935 209.112L167.904 209.417H166.559L166.598 209.018C166.661 208.331 166.427 208.065 165.965 208.065C165.512 208.065 165.231 208.331 165.176 209.018C165.121 209.714 165.364 210.23 166.208 211.081C167.278 212.16 167.575 212.926 167.474 213.965C167.333 215.403 166.559 216.216 165.223 216.216C163.887 216.216 163.246 215.403 163.355 213.965L163.394 213.402H164.707L164.653 214.051C164.598 214.7 164.856 214.926 165.293 214.926C165.731 214.926 166.028 214.7 166.083 214.051C166.145 213.387 165.911 212.894 165.067 212.058C163.98 210.98 163.668 210.198 163.746 209.104C163.863 207.565 164.645 206.666 166.051 206.666Z" fill="#263238"/>
<path d="M162.3 65.4894L161.651 63.6529C161.292 62.6369 160.292 61.8789 159.104 61.7226L141.723 59.4797C140.754 59.3547 139.887 59.9408 139.777 60.7926L139.551 62.5509L125.703 60.7692C124.64 60.6285 123.733 61.3865 123.827 62.3321L128.751 113.238L222.545 125.328L240.222 77.3368C240.551 76.4459 239.863 75.4846 238.8 75.3518L162.3 65.4894Z" fill="white"/>
<path opacity="0.4" d="M162.3 65.4894L161.651 63.6529C161.292 62.6369 160.292 61.8789 159.104 61.7226L141.723 59.4797C140.754 59.3547 139.887 59.9408 139.777 60.7926L139.551 62.5509L125.703 60.7692C124.64 60.6285 123.733 61.3865 123.827 62.3321L128.751 113.238L222.545 125.328L240.222 77.3368C240.551 76.4459 239.863 75.4846 238.8 75.3518L162.3 65.4894Z" fill="#7166F8"/>
<path d="M162.3 65.4894L161.651 63.6529C161.292 62.6369 160.292 61.8789 159.104 61.7226L141.723 59.4797C140.754 59.3547 139.887 59.9408 139.777 60.7926L139.551 62.5509L125.703 60.7692C124.64 60.6285 123.733 61.3865 123.827 62.3321L128.751 113.238L222.545 125.328L240.222 77.3368C240.551 76.4459 239.863 75.4846 238.8 75.3518L162.3 65.4894Z" stroke="#263238" stroke-miterlimit="10" stroke-linecap="round" stroke-linejoin="round"/>
<path d="M241.113 80.2283L225.116 123.671L223.881 127.016C223.397 128.329 221.92 129.126 220.357 128.923L129.97 117.279C128.407 117.076 127.18 115.927 127.047 114.536L122.241 64.911C122.155 63.9654 123.061 63.2152 124.124 63.3481L201.038 73.2652L239.691 78.2433C240.754 78.3839 241.442 79.3452 241.113 80.2283Z" fill="white"/>
<path d="M241.113 80.2283L225.116 123.671L223.881 127.016C223.397 128.329 221.92 129.126 220.357 128.923L129.97 117.279C128.407 117.076 127.18 115.927 127.047 114.536L122.241 64.911C122.155 63.9654 123.061 63.2152 124.124 63.3481L201.038 73.2652L239.691 78.2433C240.754 78.3839 241.442 79.3452 241.113 80.2283Z" stroke="#263238" stroke-miterlimit="10" stroke-linecap="round" stroke-linejoin="round"/>
<path d="M139.238 78.2822L140.473 108.987L151.601 110.433L152.907 79.8296L139.238 78.2822Z" fill="#7166F8" stroke="#263238" stroke-miterlimit="10" stroke-linecap="round" stroke-linejoin="round"/>
<path d="M146.029 106.736C146.373 105.666 146.068 104.478 145.49 103.524C144.904 102.571 144.06 101.797 143.232 101.047C144.521 101.79 145.959 102.258 147.436 102.43C147.42 100.828 145.897 99.7186 144.537 98.8824C145.146 98.6401 145.865 98.6948 146.428 99.0231C146.475 98.5307 146.264 98.0149 145.873 97.7023C146.045 97.8508 146.311 97.6164 146.303 97.3976C146.295 97.1709 146.139 96.9912 146.029 96.7958C145.779 96.3504 145.779 95.8033 145.787 95.2875C145.811 93.451 145.842 91.6145 145.865 89.7702C145.912 90.1063 146.178 90.3954 146.506 90.4814C146.483 89.7546 146.412 89.0278 146.35 88.301C146.178 86.4645 145.998 84.6202 145.826 82.7837" stroke="#263238" stroke-miterlimit="10" stroke-linecap="round" stroke-linejoin="round"/>
<path opacity="0.4" d="M308.798 107.987C308.798 107.987 308.79 107.987 308.775 107.979C308.782 107.979 308.79 107.979 308.79 107.979C308.798 107.987 308.798 107.987 308.798 107.987Z" fill="#7166F8"/>
<path d="M214.566 54.783C212.816 56.5335 212.503 58.9014 212.503 58.9014" stroke="#263238" stroke-miterlimit="10" stroke-linecap="round" stroke-linejoin="round"/>
<path d="M198.491 66.8647C198.491 66.8647 199.319 69.6625 202.508 70.9832" stroke="#263238" stroke-miterlimit="10" stroke-linecap="round" stroke-linejoin="round"/>
</g>
<defs>
<linearGradient id="paint0_linear" x1="60.4092" y1="339.31" x2="84.3015" y2="470.354" gradientUnits="userSpaceOnUse">
<stop offset="0.00520833" stop-color="#7166F8"/>
<stop offset="1" stop-color="#7166F8"/>
</linearGradient>
<clipPath id="clip0">
<rect width="330" height="341.3" fill="white" transform="translate(0 0.156738)"/>
</clipPath>
</defs>
</svg>
