<svg xmlns="http://www.w3.org/2000/svg" xmlns:xlink="http://www.w3.org/1999/xlink" viewBox="0 0 922.88 318.3"
     class="orange">
    <defs>
        <style>.cls-1{fill:#7166f8;}.cls-2{fill:url(#linear-gradient);}</style>
        <linearGradient id="linear-gradient" x1="174.23" y1="-28.4" x2="174.23" y2="295.61"
                        gradientUnits="userSpaceOnUse">
            <stop offset="0" stop-color="#fe794f"></stop>
            <stop offset="1" stop-color="#7166f8"></stop>
        </linearGradient>
    </defs>
    <title>ARAKS</title>
    <g id="Layer_2" data-name="Layer 2">
        <g id="Layer_1-2" data-name="Layer 1">
            <path class="cls-1"
                  d="M497,205.85l-8.19-26.91H447.61l-8.2,26.91H413.58L453.49,92.32H482.8l40.07,113.53Zm-13.92-47q-11.37-36.59-12.8-41.38c-.95-3.19-1.64-5.72-2.05-7.58q-2.55,9.9-14.62,49Z"></path>
            <path class="cls-1"
                  d="M561.07,162.47v43.38h-24V92.78H570q23.06,0,34.11,8.39t11.06,25.49a30,30,0,0,1-5.49,17.75,36.32,36.32,0,0,1-15.55,12.18q25.53,38.13,33.26,49.26h-26.6l-27-43.38Zm0-19.49h7.74q11.37,0,16.78-3.79T591,127.28q0-8.06-5.53-11.45t-17.13-3.4h-7.27Z"></path>
            <path class="cls-1"
                  d="M710.88,205.85l-8.19-26.91H661.46l-8.2,26.91H627.43L667.34,92.32h29.31l40.07,113.53Zm-13.92-47q-11.37-36.59-12.8-41.38c-.95-3.19-1.64-5.72-2-7.58q-2.55,9.9-14.61,49Z"></path>
            <path class="cls-1"
                  d="M841.9,205.85H814.68l-29.62-47.64-10.14,7.27v40.37H751V92.78h24v51.74l9.44-13.3L815,92.78h26.6l-39.44,50Z"></path>
            <path class="cls-1"
                  d="M922.88,174.45q0,15.31-11,24.13t-30.67,8.82q-18.11,0-32-6.8V178.32a131.78,131.78,0,0,0,19.38,7.19,56.9,56.9,0,0,0,14.5,2.09q7.89,0,12.1-3c2.81-2,4.22-5,4.22-9a9.89,9.89,0,0,0-1.86-5.91,20.9,20.9,0,0,0-5.45-5,141.31,141.31,0,0,0-14.66-7.66q-10.36-4.87-15.55-9.36a35.14,35.14,0,0,1-8.27-10.44,29.82,29.82,0,0,1-3.09-13.92q0-15,10.17-23.59t28.11-8.58a66,66,0,0,1,16.82,2.09,116.14,116.14,0,0,1,16.75,5.87l-7.74,18.64a113.94,113.94,0,0,0-15-5.18A48.22,48.22,0,0,0,888,111.11q-6.81,0-10.44,3.17a10.45,10.45,0,0,0-3.64,8.28,10.27,10.27,0,0,0,1.47,5.53,16.2,16.2,0,0,0,4.68,4.56q3.21,2.21,15.2,7.93,15.86,7.57,21.73,15.2T922.88,174.45Z"></path>
            <path class="cls-2"
                  d="M346.51,266.15c-2.84-5.37-5.76-10.7-8.54-16.11C333.05,240.47,220.11,22.93,211.19,5.42,209.29,1.69,206.58,0,202.34,0Q174.2.17,146.06,0c-3.76,0-6.33,1.35-8.1,4.66C132.08,15.74,14.75,241.61,1.42,267.27c-2.37,4.58-1.79,7.44,1.89,11.05,11.44,11.24,23,22.34,34.18,33.85A18.53,18.53,0,0,0,52,318.3c80.21-.17,246.28-.15,249.11-.16a9,9,0,0,0,6.53-2.78c12.24-12.1,24.55-24.13,36.79-36.24C349.17,274.45,349.54,271.88,346.51,266.15ZM173.23,14.86c7.45.25,14.91.22,22.36,0,2.64-.08,3.93.89,5,3.07,4.49,8.78,118.74,228.91,122.51,236,1.32,2.51,1.1,3.53-2.13,3.52q-95.22-.11-190.46,0c-3.19,0-4.16-.58-2.55-3.73,3.75-7.36,6.27-15.26,10.07-22.62,1.51-2.9,2.9-4.11,6.28-4.1,38.3.13,116.69.11,117.59.08,6.46-.21,9.87-5.4,7-11.18-5.63-11.22-92.22-186.64-97.83-197.72C169.73,15.45,170,14.76,173.23,14.86ZM174,151.38c2.8,3.36,24.61,53.78,26.51,57.84.9,1.93,1.1,3-1.68,2.95q-24.65-.12-49.28,0c-3.56,0-2.17-1.73-1.46-3.31C155.86,191.59,173.16,153.11,174,151.38ZM42.83,291.13c-.91,2.66-1.94,3.09-4.11.85-5.54-5.72-11.29-11.23-16.95-16.82-4.88-4.83-4.89-4.83-1.6-11.17C26.65,251.5,144.45,24.23,147.81,17.87c.66-1.23,1-3,3-3.16,2.18-.17,2.85,1.54,3.56,3,10.12,20.57,92.87,188.25,93.53,189.6,2.21,4.47,2.24,4.47-2.55,4.48q-11.47,0-22.94,0c-1.64,0-3.33.21-4.81-.82,0,0-1.19-1.16-.25-.17-.46-1.63-50-112.87-56.17-126.7a7.55,7.55,0,0,0-3.42-4c-4.23-2.14-8.65-.77-10.94,3.77C134.62,108,44,287.69,42.83,291.13Zm284.49-16.66c-8.85,8.75-17.76,17.46-26.56,26.27a7.09,7.09,0,0,1-5.47,2.14c-78.79-.05-238.91,0-240.64,0,2.17-5.72,87.81-176.19,97.11-194.67.44-.89.55-2.32,1.64-2.39,1.46-.09,1.47,1.53,1.91,2.51,3.21,7.13,6.32,14.3,9.59,21.39a5.21,5.21,0,0,1,0,4.68c-2.2,5.32-45.3,101.13-56.28,125.74-3.54,7.94-.51,12.39,8.17,12.39h211A1.4,1.4,0,0,1,327.32,274.47Z"></path>
        </g>
    </g>
</svg>