<svg xmlns="http://www.w3.org/2000/svg" width="99" height="34" viewBox="0 0 99 34" fill="none">
    <path d="M53.7067 21.8953L52.837 19.0498H48.462L47.5913 21.8953H44.8484L49.0864 9.89075H52.1988L56.4538 21.8953H53.7067ZM52.2286 16.9256C51.4236 14.3462 50.9706 12.8877 50.8693 12.5501C50.7685 12.2128 50.6952 11.9453 50.6517 11.7486C50.4711 12.4465 49.9536 14.1735 49.0992 16.9298L52.2286 16.9256Z" fill="#7166F8"/>
    <path d="M60.5107 17.3083V21.8952H57.9622V9.93933H61.459C63.0915 9.93933 64.2989 10.235 65.0811 10.8265C65.8634 11.4179 66.2549 12.3163 66.2556 13.5218C66.2656 14.1931 66.0615 14.8502 65.6726 15.3986C65.2522 15.9716 64.6807 16.4174 64.0213 16.6865C65.8287 19.3744 67.006 21.1107 67.5532 21.8952H64.7286L61.8614 17.3083H60.5107ZM60.5107 15.2474H61.3326C62.1375 15.2474 62.7315 15.1138 63.1145 14.8467C63.4975 14.5795 63.689 14.1597 63.689 13.5873C63.689 13.0192 63.4932 12.6156 63.1017 12.3766C62.7103 12.1376 62.1039 12.0178 61.2827 12.0171H60.5107V15.2474Z" fill="#7166F8"/>
    <path d="M76.4192 21.8953L75.5495 19.0498H71.1713L70.3005 21.8953H67.5576L71.7957 9.89075H74.9081L79.1631 21.8953H76.4192ZM74.941 16.9256C74.1361 14.3462 73.683 12.8877 73.5818 12.5501C73.4809 12.2128 73.4076 11.9453 73.3694 11.7486C73.1889 12.4465 72.6717 14.1735 71.818 16.9298L74.941 16.9256Z" fill="#7166F8"/>
    <path d="M90.3319 21.8952H87.4414L84.296 16.8578L83.2193 17.6266V21.8952H80.6792V9.93933H83.2278V15.4103L84.2302 14.0039L87.4753 9.93933H90.3L86.1119 15.2263L90.3319 21.8952Z" fill="#7166F8"/>
    <path d="M98.9312 18.5753C98.9312 19.6546 98.5418 20.5051 97.7631 21.1268C96.9843 21.7485 95.8987 22.0594 94.5062 22.0594C93.2242 22.0594 92.0915 21.8197 91.1082 21.3404V18.9845C91.7731 19.2912 92.4612 19.5454 93.1661 19.7448C93.6677 19.8842 94.1852 19.9585 94.7059 19.9658C95.2644 19.9658 95.6927 19.8601 95.9908 19.6486C96.2891 19.4371 96.4389 19.1199 96.4389 18.6969C96.442 18.4729 96.3727 18.2539 96.2414 18.072C96.0816 17.8629 95.8856 17.6839 95.6626 17.5433C95.16 17.2433 94.6402 16.9728 94.1059 16.7333C93.3725 16.39 92.8221 16.0601 92.4546 15.7436C92.0939 15.4348 91.7958 15.0601 91.5764 14.6397C91.3491 14.1827 91.2366 13.6777 91.2483 13.1678C91.2483 12.1104 91.6083 11.279 92.3283 10.6734C93.0482 10.0679 94.0432 9.7655 95.3133 9.76621C95.9157 9.76312 96.516 9.8374 97.0994 9.9872C97.7073 10.1486 98.3019 10.3561 98.8781 10.6079L98.0561 12.5789C97.5386 12.3596 97.0064 12.1766 96.4633 12.0311C96.0591 11.9301 95.644 11.8786 95.2273 11.8778C94.7452 11.8778 94.3756 11.9895 94.1186 12.213C93.9925 12.3208 93.8922 12.4554 93.8253 12.607C93.7584 12.7585 93.7266 12.9231 93.7321 13.0885C93.7274 13.2942 93.7816 13.497 93.8882 13.6733C94.0192 13.8659 94.1883 14.03 94.3852 14.1554C94.6124 14.3112 95.1504 14.5907 95.9993 14.9939C97.122 15.5276 97.8912 16.0633 98.3068 16.6012C98.7223 17.139 98.9304 17.7971 98.9312 18.5753Z" fill="#7166F8"/>
    <path d="M37.7268 28.2713C37.4252 27.7035 37.1152 27.1399 36.82 26.5679C36.2975 25.556 24.3044 2.5535 23.3572 0.702012C23.1555 0.307605 22.8677 0.128906 22.4174 0.128906C20.4253 0.14089 18.4332 0.14089 16.4411 0.128906C16.0418 0.128906 15.7689 0.271654 15.5809 0.62165C14.9565 1.79324 2.49729 25.6765 1.08178 28.3898C0.830107 28.8741 0.891697 29.1765 1.28248 29.5582C2.49729 30.7467 3.72484 31.9204 4.91204 33.1375C5.10528 33.3516 5.34353 33.5207 5.60984 33.6327C5.87615 33.7447 6.16398 33.7969 6.45286 33.7856C14.9703 33.7677 32.6053 33.7698 32.9058 33.7687C33.0354 33.7691 33.1636 33.7432 33.2828 33.6927C33.402 33.6421 33.5097 33.568 33.5992 33.4748C34.899 32.1953 36.2062 30.9233 37.5059 29.6428C38.0093 29.149 38.0486 28.8772 37.7268 28.2713ZM19.3262 1.70019C20.1174 1.72662 20.9095 1.72345 21.7007 1.70019C21.981 1.69173 22.118 1.7943 22.2316 2.02481C22.7084 2.9532 34.8406 26.2295 35.2409 26.9792C35.3811 27.2446 35.3577 27.3525 35.0147 27.3514C28.2738 27.3437 21.5322 27.3437 14.7898 27.3514C14.4511 27.3514 14.3481 27.2901 14.519 26.957C14.9172 26.1788 15.1848 25.3434 15.5884 24.5652C15.7487 24.2585 15.8963 24.1306 16.2552 24.1317C20.3223 24.1454 28.6465 24.1433 28.7421 24.1401C29.4281 24.1179 29.7902 23.5691 29.4854 22.958C28.8876 21.7716 19.6926 3.22283 19.0969 2.05124C18.9546 1.76257 18.9833 1.68961 19.3262 1.70019ZM19.408 16.1357C19.7053 16.491 22.0213 21.8223 22.2231 22.2516C22.3187 22.4557 22.3399 22.5688 22.0447 22.5636C20.2997 22.5551 18.5553 22.5551 16.8117 22.5636C16.4336 22.5636 16.5812 22.3806 16.6566 22.2136C17.4817 20.3874 19.3188 16.3186 19.408 16.1357ZM5.4791 30.9127C5.38246 31.194 5.27309 31.2394 5.04266 31.0026C4.45437 30.3978 3.84377 29.8151 3.24274 29.2241C2.72453 28.7133 2.72347 28.7133 3.07284 28.0429C3.76095 26.7223 16.2701 2.69096 16.6269 2.01846C16.697 1.8884 16.7331 1.70125 16.9455 1.68433C17.177 1.66635 17.2481 1.84717 17.3235 2.00154C18.3981 4.1766 27.1854 21.9069 27.2554 22.0497C27.4901 22.5223 27.4933 22.5223 26.9847 22.5234C26.1727 22.5234 25.3607 22.5234 24.5487 22.5234C24.3745 22.5234 24.1951 22.5456 24.0379 22.4367C24.0379 22.4367 23.9115 22.314 24.0113 22.4187C23.9625 22.2463 18.7019 10.4839 18.0467 9.02156C17.9805 8.84176 17.8516 8.69165 17.6835 8.5986C17.2343 8.37232 16.765 8.51718 16.5218 8.99724C15.2263 11.5487 5.60334 30.549 5.4791 30.9127ZM35.689 29.1511C34.7493 30.0763 33.8031 30.9973 32.8686 31.9289C32.7937 32.0057 32.703 32.0657 32.6028 32.1047C32.5026 32.1437 32.3952 32.1609 32.2878 32.1551C23.9211 32.1499 6.91797 32.1551 6.73426 32.1551C6.96469 31.5503 16.0588 13.525 17.0464 11.5709C17.0931 11.4768 17.1048 11.3256 17.2205 11.3182C17.3755 11.3087 17.3766 11.48 17.4233 11.5836C17.7642 12.3375 18.0944 13.0957 18.4417 13.8454C18.4804 13.9221 18.5006 14.0069 18.5006 14.0928C18.5006 14.1787 18.4804 14.2635 18.4417 14.3402C18.2081 14.9028 13.6313 25.0336 12.4653 27.6359C12.0894 28.4754 12.4112 28.946 13.3329 28.946H35.7389C35.7494 28.9626 35.7563 28.9812 35.7595 29.0006C35.7626 29.02 35.7618 29.0398 35.7572 29.0589C35.7525 29.078 35.7441 29.096 35.7324 29.1118C35.7207 29.1277 35.706 29.141 35.689 29.1511Z" fill="url(#paint0_linear_2202:378)"/>
    <defs>
        <linearGradient id="paint0_linear_2202:378" x1="19.4324" y1="-2.87408" x2="19.4324" y2="31.3864" gradientUnits="userSpaceOnUse">
            <stop stop-color="#FE794F"/>
            <stop offset="1" stop-color="#7166F8"/>
        </linearGradient>
    </defs>
</svg>
