<svg width="685" height="324" viewBox="0 0 685 324" fill="none" xmlns="http://www.w3.org/2000/svg">
<g clip-path="url(#clip0)">
<rect x="0.5" y="0.76416" width="684" height="322" fill="#EEEEEE"/>
<g filter="url(#filter0_d)">
<rect y="-2.21533" width="200" height="325.479" fill="white"/>
</g>
<g filter="url(#filter1_d)">
<rect x="19.2197" y="10.2642" width="171.737" height="37" rx="2" fill="white"/>
</g>
<g filter="url(#filter2_d)">
<rect x="19.2197" y="101.264" width="171.737" height="37" rx="2" fill="white"/>
</g>
<g filter="url(#filter3_d)">
<rect x="19.2197" y="143.264" width="171.737" height="37" rx="2" fill="white"/>
</g>
<g filter="url(#filter4_d)">
<rect x="19.2197" y="189.264" width="171.737" height="37" rx="2" fill="white"/>
</g>
<g filter="url(#filter5_d)">
<rect x="19.2197" y="235.264" width="171.737" height="37" rx="2" fill="white"/>
</g>
<g filter="url(#filter6_d)">
<rect x="19.2197" y="281.264" width="171.737" height="38" rx="2" fill="white"/>
</g>
<path d="M26.2197 243.264H30.6153V247.664H26.2197V243.264ZM35.0197 243.264H48.2197V247.664H35.0197V243.264ZM26.2197 252.064H30.6153V256.464H26.2197V252.064ZM35.0197 252.064H48.2197V256.464H35.0197V252.064ZM26.2197 260.864H30.6153V265.264H26.2197V260.864ZM35.0197 260.864H48.2197V265.264H35.0197V260.864Z" fill="#727272"/>
<path fill-rule="evenodd" clip-rule="evenodd" d="M37.9072 301.557L41.7583 297.99L43.4374 299.546L36.7197 305.769L30.002 299.546L31.6812 297.99L35.5322 301.557V289.264H37.9072V301.557ZM27.2197 304.664H29.5947V309.064H43.8447V304.664H46.2197V309.064C46.2197 310.274 45.151 311.264 43.8447 311.264H29.5947C28.2885 311.264 27.2197 310.205 27.2197 309.064V304.664Z" fill="#727272"/>
<path d="M45.3291 157.002C45.3291 155.773 44.3296 154.774 43.1005 154.774H31.9577V151.431H29.7291V154.774H26.3862V157.002H43.1005V173.717H45.3291V170.374H48.672V168.145H45.3291V157.002Z" fill="#727272"/>
<path d="M29.6362 159.014V167.681C29.6362 168.876 30.608 169.847 31.8029 169.847H40.4696V167.681H31.8029V159.014H29.6362Z" fill="#727272"/>
<path d="M42.376 211.53C41.7637 211.53 41.1986 211.745 40.7561 212.103L36.3045 208.883C36.379 208.474 36.379 208.055 36.3045 207.645L40.7561 204.425C41.1986 204.784 41.7637 204.999 42.376 204.999C43.7982 204.999 44.9541 203.843 44.9541 202.42C44.9541 200.998 43.7982 199.842 42.376 199.842C40.9537 199.842 39.7979 200.998 39.7979 202.42C39.7979 202.67 39.8322 202.908 39.8988 203.136L35.6707 206.197C35.0434 205.366 34.0465 204.827 32.9229 204.827C31.0236 204.827 29.4854 206.365 29.4854 208.264C29.4854 210.163 31.0236 211.702 32.9229 211.702C34.0465 211.702 35.0434 211.162 35.6707 210.331L39.8988 213.392C39.8322 213.62 39.7979 213.861 39.7979 214.108C39.7979 215.53 40.9537 216.686 42.376 216.686C43.7982 216.686 44.9541 215.53 44.9541 214.108C44.9541 212.686 43.7982 211.53 42.376 211.53ZM42.376 201.303C42.9926 201.303 43.4932 201.804 43.4932 202.42C43.4932 203.037 42.9926 203.538 42.376 203.538C41.7594 203.538 41.2588 203.037 41.2588 202.42C41.2588 201.804 41.7594 201.303 42.376 201.303ZM32.9229 210.155C31.8809 210.155 31.0322 209.306 31.0322 208.264C31.0322 207.222 31.8809 206.374 32.9229 206.374C33.9648 206.374 34.8135 207.222 34.8135 208.264C34.8135 209.306 33.9648 210.155 32.9229 210.155ZM42.376 215.225C41.7594 215.225 41.2588 214.725 41.2588 214.108C41.2588 213.491 41.7594 212.991 42.376 212.991C42.9926 212.991 43.4932 213.491 43.4932 214.108C43.4932 214.725 42.9926 215.225 42.376 215.225Z" fill="#727272"/>
<path d="M27.2197 116.764V129.264H42.2197V116.764H27.2197ZM29.7197 114.264V109.264C29.7197 108.601 29.9831 107.965 30.452 107.496C30.9208 107.028 31.5567 106.764 32.2197 106.764H47.2197C47.8828 106.764 48.5187 107.028 48.9875 107.496C49.4563 107.965 49.7197 108.601 49.7197 109.264V121.764C49.7197 122.427 49.4563 123.063 48.9875 123.532C48.5187 124.001 47.8828 124.264 47.2197 124.264H44.7197V129.264C44.7197 129.927 44.4563 130.563 43.9875 131.032C43.5187 131.501 42.8828 131.764 42.2197 131.764H27.2197C26.5567 131.764 25.9208 131.501 25.452 131.032C24.9831 130.563 24.7197 129.927 24.7197 129.264V116.764C24.7197 116.101 24.9831 115.465 25.452 114.996C25.9208 114.528 26.5567 114.264 27.2197 114.264H29.7197ZM32.2197 114.264H42.2197C42.8828 114.264 43.5187 114.528 43.9875 114.996C44.4563 115.465 44.7197 116.101 44.7197 116.764V121.764H47.2197V109.264H32.2197V114.264ZM32.2197 125.514C31.7273 125.514 31.2396 125.417 30.7847 125.229C30.3297 125.04 29.9163 124.764 29.5681 124.416C29.2199 124.068 28.9436 123.654 28.7552 123.199C28.5667 122.744 28.4697 122.257 28.4697 121.764C28.4697 121.272 28.5667 120.784 28.7552 120.329C28.9436 119.874 29.2199 119.461 29.5681 119.113C29.9163 118.764 30.3297 118.488 30.7847 118.3C31.2396 118.111 31.7273 118.014 32.2197 118.014C33.2143 118.014 34.1681 118.409 34.8714 119.113C35.5746 119.816 35.9697 120.77 35.9697 121.764C35.9697 122.759 35.5746 123.713 34.8714 124.416C34.1681 125.119 33.2143 125.514 32.2197 125.514ZM32.2197 123.014C32.5512 123.014 32.8692 122.882 33.1036 122.648C33.338 122.414 33.4697 122.096 33.4697 121.764C33.4697 121.433 33.338 121.115 33.1036 120.88C32.8692 120.646 32.5512 120.514 32.2197 120.514C31.8882 120.514 31.5703 120.646 31.3358 120.88C31.1014 121.115 30.9697 121.433 30.9697 121.764C30.9697 122.096 31.1014 122.414 31.3358 122.648C31.5703 122.882 31.8882 123.014 32.2197 123.014ZM33.4697 114.264C33.4697 113.27 33.8648 112.316 34.5681 111.613C35.2713 110.909 36.2252 110.514 37.2197 110.514C38.2143 110.514 39.1681 110.909 39.8714 111.613C40.5746 112.316 40.9697 113.27 40.9697 114.264H38.4697C38.4697 113.933 38.338 113.615 38.1036 113.38C37.8692 113.146 37.5512 113.014 37.2197 113.014C36.8882 113.014 36.5703 113.146 36.3358 113.38C36.1014 113.615 35.9697 113.933 35.9697 114.264H33.4697ZM35.7997 131.162L33.6397 129.903L37.046 124.062C37.3417 123.554 37.7523 123.124 38.2449 122.804C38.7374 122.485 39.2982 122.285 39.8819 122.222C40.4656 122.159 41.056 122.233 41.6056 122.44C42.1552 122.647 42.6485 122.979 43.046 123.412L44.406 124.892L42.5647 126.584L41.206 125.104C41.0734 124.96 40.9089 124.849 40.7257 124.78C40.5425 124.712 40.3456 124.687 40.1511 124.708C39.9565 124.729 39.7696 124.796 39.6054 124.902C39.4413 125.009 39.3045 125.153 39.206 125.322L35.7997 131.162ZM43.9397 114.949C44.6416 114.678 45.4089 114.625 46.1413 114.797C46.8738 114.969 47.5376 115.357 48.046 115.912L49.406 117.392L47.5647 119.084L46.206 117.604C46.0215 117.403 45.7764 117.268 45.508 117.22C45.2397 117.171 44.9629 117.212 44.7197 117.335V116.764C44.7197 116.05 44.4197 115.405 43.9397 114.95V114.949Z" fill="#727272"/>
<path d="M64.3096 113.889L68.0283 123.17L71.7471 113.889H73.6924V125.264H72.1924V120.834L72.333 116.053L68.5986 125.264H67.4502L63.7236 116.077L63.8721 120.834V125.264H62.3721V113.889H64.3096ZM79.6221 125.42C78.4762 125.42 77.5439 125.045 76.8252 124.295C76.1064 123.54 75.7471 122.532 75.7471 121.272V121.006C75.7471 120.168 75.9059 119.42 76.2236 118.764C76.5465 118.103 76.9945 117.587 77.5674 117.217C78.1455 116.842 78.7705 116.655 79.4424 116.655C80.5413 116.655 81.3955 117.017 82.0049 117.741C82.6143 118.465 82.9189 119.501 82.9189 120.85V121.452H77.1924C77.2132 122.285 77.4554 122.959 77.9189 123.475C78.3877 123.986 78.9814 124.241 79.7002 124.241C80.2106 124.241 80.6429 124.137 80.9971 123.928C81.3512 123.72 81.6611 123.444 81.9268 123.1L82.8096 123.788C82.1012 124.876 81.0387 125.42 79.6221 125.42ZM79.4424 117.842C78.859 117.842 78.3695 118.056 77.9736 118.483C77.5778 118.905 77.333 119.499 77.2393 120.264H81.4736V120.155C81.432 119.42 81.234 118.853 80.8799 118.452C80.5257 118.045 80.0465 117.842 79.4424 117.842ZM84.2471 120.967C84.2471 119.67 84.5544 118.629 85.1689 117.842C85.7835 117.051 86.5882 116.655 87.583 116.655C88.5726 116.655 89.3564 116.993 89.9346 117.67V113.264H91.3799V125.264H90.0518L89.9814 124.358C89.4033 125.066 88.5986 125.42 87.5674 125.42C86.5882 125.42 85.7887 125.019 85.1689 124.217C84.5544 123.415 84.2471 122.368 84.2471 121.077V120.967ZM85.6924 121.131C85.6924 122.09 85.8903 122.84 86.2861 123.381C86.682 123.923 87.2288 124.194 87.9268 124.194C88.8434 124.194 89.5127 123.782 89.9346 122.959V119.077C89.5023 118.28 88.8382 117.881 87.9424 117.881C87.234 117.881 86.682 118.155 86.2861 118.702C85.8903 119.249 85.6924 120.058 85.6924 121.131ZM95.2002 125.264H93.7549V116.811H95.2002V125.264ZM93.6377 114.569C93.6377 114.334 93.708 114.137 93.8486 113.975C93.9945 113.814 94.208 113.733 94.4893 113.733C94.7705 113.733 94.984 113.814 95.1299 113.975C95.2757 114.137 95.3486 114.334 95.3486 114.569C95.3486 114.803 95.2757 114.999 95.1299 115.155C94.984 115.311 94.7705 115.389 94.4893 115.389C94.208 115.389 93.9945 115.311 93.8486 115.155C93.708 114.999 93.6377 114.803 93.6377 114.569ZM102.739 125.264C102.656 125.097 102.588 124.801 102.536 124.374C101.864 125.071 101.062 125.42 100.13 125.42C99.2965 125.42 98.6117 125.186 98.0752 124.717C97.5439 124.243 97.2783 123.644 97.2783 122.92C97.2783 122.04 97.6117 121.358 98.2783 120.874C98.9502 120.384 99.8929 120.139 101.106 120.139H102.513V119.475C102.513 118.97 102.362 118.569 102.06 118.272C101.757 117.97 101.312 117.819 100.724 117.819C100.208 117.819 99.7757 117.949 99.4268 118.209C99.0778 118.47 98.9033 118.785 98.9033 119.155H97.4502C97.4502 118.733 97.5986 118.327 97.8955 117.936C98.1976 117.54 98.6038 117.228 99.1143 116.999C99.6299 116.769 100.195 116.655 100.81 116.655C101.784 116.655 102.547 116.9 103.099 117.389C103.651 117.874 103.937 118.543 103.958 119.397V123.288C103.958 124.064 104.057 124.681 104.255 125.139V125.264H102.739ZM100.341 124.163C100.794 124.163 101.224 124.045 101.63 123.811C102.036 123.577 102.33 123.272 102.513 122.897V121.163H101.38C99.609 121.163 98.7236 121.681 98.7236 122.717C98.7236 123.17 98.8747 123.525 99.1768 123.78C99.4788 124.035 99.8669 124.163 100.341 124.163Z" fill="#727272"/>
<path d="M70.7393 163.655C70.5986 164.858 70.1533 165.788 69.4033 166.444C68.6585 167.095 67.6663 167.42 66.4268 167.42C65.083 167.42 64.0049 166.939 63.1924 165.975C62.3851 165.012 61.9814 163.722 61.9814 162.108V161.014C61.9814 159.957 62.1689 159.027 62.5439 158.225C62.9242 157.423 63.4606 156.808 64.1533 156.381C64.846 155.949 65.6481 155.733 66.5596 155.733C67.7679 155.733 68.7367 156.071 69.4658 156.749C70.195 157.42 70.6195 158.353 70.7393 159.545H69.2314C69.1012 158.639 68.8174 157.983 68.3799 157.577C67.9476 157.17 67.3408 156.967 66.5596 156.967C65.6012 156.967 64.8486 157.321 64.3018 158.03C63.7601 158.738 63.4893 159.746 63.4893 161.053V162.155C63.4893 163.389 63.7471 164.371 64.2627 165.1C64.7783 165.829 65.4997 166.194 66.4268 166.194C67.2601 166.194 67.8981 166.006 68.3408 165.631C68.7887 165.251 69.0856 164.592 69.2314 163.655H70.7393ZM76.6533 160.108C76.4346 160.071 76.1976 160.053 75.9424 160.053C74.9945 160.053 74.3512 160.457 74.0127 161.264V167.264H72.5674V158.811H73.9736L73.9971 159.788C74.471 159.032 75.1429 158.655 76.0127 158.655C76.2939 158.655 76.5075 158.691 76.6533 158.764V160.108ZM77.4502 162.959C77.4502 162.131 77.6117 161.387 77.9346 160.725C78.2627 160.064 78.7158 159.553 79.2939 159.194C79.8773 158.834 80.5413 158.655 81.2861 158.655C82.4372 158.655 83.3669 159.053 84.0752 159.85C84.7887 160.647 85.1455 161.707 85.1455 163.03V163.131C85.1455 163.954 84.9867 164.694 84.6689 165.35C84.3564 166.001 83.9059 166.509 83.3174 166.874C82.734 167.238 82.0622 167.42 81.3018 167.42C80.1559 167.42 79.2262 167.022 78.5127 166.225C77.8044 165.428 77.4502 164.374 77.4502 163.061V162.959ZM78.9033 163.131C78.9033 164.069 79.1195 164.821 79.5518 165.389C79.9893 165.957 80.5726 166.241 81.3018 166.241C82.0361 166.241 82.6195 165.954 83.0518 165.381C83.484 164.803 83.7002 163.996 83.7002 162.959C83.7002 162.032 83.4788 161.282 83.0361 160.709C82.5986 160.131 82.0153 159.842 81.2861 159.842C80.5726 159.842 79.9971 160.126 79.5596 160.694C79.1221 161.262 78.9033 162.074 78.9033 163.131ZM94.0986 163.131C94.0986 164.418 93.8044 165.454 93.2158 166.241C92.6273 167.027 91.8304 167.42 90.8252 167.42C89.7992 167.42 88.9919 167.095 88.4033 166.444V170.514H86.958V158.811H88.2783L88.3486 159.749C88.9372 159.019 89.7549 158.655 90.8018 158.655C91.8174 158.655 92.6195 159.038 93.208 159.803C93.8018 160.569 94.0986 161.634 94.0986 162.999V163.131ZM92.6533 162.967C92.6533 162.014 92.4502 161.262 92.0439 160.709C91.6377 160.157 91.0804 159.881 90.3721 159.881C89.4971 159.881 88.8408 160.269 88.4033 161.045V165.084C88.8356 165.855 89.4971 166.241 90.3877 166.241C91.0804 166.241 91.6299 165.967 92.0361 165.42C92.4476 164.868 92.6533 164.051 92.6533 162.967Z" fill="#727272"/>
<path d="M65.7236 208.194C64.4372 207.824 63.4997 207.371 62.9111 206.834C62.3278 206.293 62.0361 205.626 62.0361 204.834C62.0361 203.939 62.3929 203.199 63.1064 202.616C63.8252 202.027 64.7575 201.733 65.9033 201.733C66.6846 201.733 67.3799 201.884 67.9893 202.186C68.6038 202.488 69.0778 202.905 69.4111 203.436C69.7497 203.967 69.9189 204.548 69.9189 205.178H68.4111C68.4111 204.491 68.1924 203.952 67.7549 203.561C67.3174 203.165 66.7002 202.967 65.9033 202.967C65.1637 202.967 64.5856 203.131 64.1689 203.459C63.7575 203.782 63.5518 204.233 63.5518 204.811C63.5518 205.275 63.7471 205.668 64.1377 205.991C64.5335 206.308 65.2028 206.6 66.1455 206.866C67.0934 207.131 67.833 207.426 68.3643 207.749C68.9007 208.066 69.2965 208.439 69.5518 208.866C69.8122 209.293 69.9424 209.795 69.9424 210.374C69.9424 211.295 69.583 212.035 68.8643 212.592C68.1455 213.144 67.1846 213.42 65.9814 213.42C65.2002 213.42 64.471 213.272 63.7939 212.975C63.1169 212.673 62.5934 212.262 62.2236 211.741C61.859 211.22 61.6768 210.629 61.6768 209.967H63.1846C63.1846 210.655 63.4372 211.199 63.9424 211.6C64.4528 211.996 65.1325 212.194 65.9814 212.194C66.7731 212.194 67.3799 212.032 67.8018 211.709C68.2236 211.387 68.4346 210.946 68.4346 210.389C68.4346 209.832 68.2393 209.402 67.8486 209.1C67.458 208.793 66.7497 208.491 65.7236 208.194ZM73.0908 205.834C73.7314 205.048 74.5648 204.655 75.5908 204.655C77.3773 204.655 78.2783 205.663 78.2939 207.678V213.264H76.8486V207.67C76.8434 207.061 76.7028 206.611 76.4268 206.319C76.1559 206.027 75.7314 205.881 75.1533 205.881C74.6846 205.881 74.2731 206.006 73.9189 206.256C73.5648 206.506 73.2887 206.834 73.0908 207.241V213.264H71.6455V201.264H73.0908V205.834ZM85.6768 213.264C85.5934 213.097 85.5257 212.801 85.4736 212.374C84.8018 213.071 83.9997 213.42 83.0674 213.42C82.234 213.42 81.5492 213.186 81.0127 212.717C80.4814 212.243 80.2158 211.644 80.2158 210.92C80.2158 210.04 80.5492 209.358 81.2158 208.874C81.8877 208.384 82.8304 208.139 84.0439 208.139H85.4502V207.475C85.4502 206.97 85.2992 206.569 84.9971 206.272C84.695 205.97 84.2497 205.819 83.6611 205.819C83.1455 205.819 82.7132 205.949 82.3643 206.209C82.0153 206.47 81.8408 206.785 81.8408 207.155H80.3877C80.3877 206.733 80.5361 206.327 80.833 205.936C81.1351 205.54 81.5413 205.228 82.0518 204.999C82.5674 204.769 83.1325 204.655 83.7471 204.655C84.721 204.655 85.484 204.9 86.0361 205.389C86.5882 205.874 86.8747 206.543 86.8955 207.397V211.288C86.8955 212.064 86.9945 212.681 87.1924 213.139V213.264H85.6768ZM83.2783 212.163C83.7314 212.163 84.1611 212.045 84.5674 211.811C84.9736 211.577 85.2679 211.272 85.4502 210.897V209.163H84.3174C82.5465 209.163 81.6611 209.681 81.6611 210.717C81.6611 211.17 81.8122 211.525 82.1143 211.78C82.4163 212.035 82.8044 212.163 83.2783 212.163ZM93.2471 206.108C93.0283 206.071 92.7913 206.053 92.5361 206.053C91.5882 206.053 90.945 206.457 90.6064 207.264V213.264H89.1611V204.811H90.5674L90.5908 205.788C91.0648 205.032 91.7367 204.655 92.6064 204.655C92.8877 204.655 93.1012 204.691 93.2471 204.764V206.108ZM97.9346 213.42C96.7887 213.42 95.8564 213.045 95.1377 212.295C94.4189 211.54 94.0596 210.532 94.0596 209.272V209.006C94.0596 208.168 94.2184 207.42 94.5361 206.764C94.859 206.103 95.307 205.587 95.8799 205.217C96.458 204.842 97.083 204.655 97.7549 204.655C98.8538 204.655 99.708 205.017 100.317 205.741C100.927 206.465 101.231 207.501 101.231 208.85V209.452H95.5049C95.5257 210.285 95.7679 210.959 96.2314 211.475C96.7002 211.986 97.2939 212.241 98.0127 212.241C98.5231 212.241 98.9554 212.137 99.3096 211.928C99.6637 211.72 99.9736 211.444 100.239 211.1L101.122 211.788C100.414 212.876 99.3512 213.42 97.9346 213.42ZM97.7549 205.842C97.1715 205.842 96.682 206.056 96.2861 206.483C95.8903 206.905 95.6455 207.499 95.5518 208.264H99.7861V208.155C99.7445 207.42 99.5465 206.853 99.1924 206.452C98.8382 206.045 98.359 205.842 97.7549 205.842Z" fill="#727272"/>
<path d="M62.3721 259.264V247.889H65.583C66.5726 247.889 67.4476 248.108 68.208 248.545C68.9684 248.983 69.5544 249.605 69.9658 250.413C70.3825 251.22 70.5934 252.147 70.5986 253.194V253.92C70.5986 254.993 70.3903 255.933 69.9736 256.741C69.5622 257.548 68.971 258.168 68.2002 258.6C67.4346 259.032 66.5413 259.254 65.5205 259.264H62.3721ZM63.8721 249.124V258.038H65.4502C66.6064 258.038 67.5049 257.678 68.1455 256.959C68.7913 256.241 69.1143 255.217 69.1143 253.889V253.225C69.1143 251.933 68.8096 250.931 68.2002 250.217C67.596 249.499 66.7367 249.134 65.6221 249.124H63.8721ZM77.8643 259.264C77.7809 259.097 77.7132 258.801 77.6611 258.374C76.9893 259.071 76.1872 259.42 75.2549 259.42C74.4215 259.42 73.7367 259.186 73.2002 258.717C72.6689 258.243 72.4033 257.644 72.4033 256.92C72.4033 256.04 72.7367 255.358 73.4033 254.874C74.0752 254.384 75.0179 254.139 76.2314 254.139H77.6377V253.475C77.6377 252.97 77.4867 252.569 77.1846 252.272C76.8825 251.97 76.4372 251.819 75.8486 251.819C75.333 251.819 74.9007 251.949 74.5518 252.209C74.2028 252.47 74.0283 252.785 74.0283 253.155H72.5752C72.5752 252.733 72.7236 252.327 73.0205 251.936C73.3226 251.54 73.7288 251.228 74.2393 250.999C74.7549 250.769 75.32 250.655 75.9346 250.655C76.9085 250.655 77.6715 250.9 78.2236 251.389C78.7757 251.874 79.0622 252.543 79.083 253.397V257.288C79.083 258.064 79.182 258.681 79.3799 259.139V259.264H77.8643ZM75.4658 258.163C75.9189 258.163 76.3486 258.045 76.7549 257.811C77.1611 257.577 77.4554 257.272 77.6377 256.897V255.163H76.5049C74.734 255.163 73.8486 255.681 73.8486 256.717C73.8486 257.17 73.9997 257.525 74.3018 257.78C74.6038 258.035 74.9919 258.163 75.4658 258.163ZM83.3096 248.764V250.811H84.8877V251.928H83.3096V257.17C83.3096 257.509 83.3799 257.764 83.5205 257.936C83.6611 258.103 83.9007 258.186 84.2393 258.186C84.4059 258.186 84.6351 258.155 84.9268 258.092V259.264C84.5465 259.368 84.1768 259.42 83.8174 259.42C83.1715 259.42 82.6846 259.225 82.3564 258.834C82.0283 258.444 81.8643 257.889 81.8643 257.17V251.928H80.3252V250.811H81.8643V248.764H83.3096ZM91.8018 259.264C91.7184 259.097 91.6507 258.801 91.5986 258.374C90.9268 259.071 90.1247 259.42 89.1924 259.42C88.359 259.42 87.6742 259.186 87.1377 258.717C86.6064 258.243 86.3408 257.644 86.3408 256.92C86.3408 256.04 86.6742 255.358 87.3408 254.874C88.0127 254.384 88.9554 254.139 90.1689 254.139H91.5752V253.475C91.5752 252.97 91.4242 252.569 91.1221 252.272C90.82 251.97 90.3747 251.819 89.7861 251.819C89.2705 251.819 88.8382 251.949 88.4893 252.209C88.1403 252.47 87.9658 252.785 87.9658 253.155H86.5127C86.5127 252.733 86.6611 252.327 86.958 251.936C87.2601 251.54 87.6663 251.228 88.1768 250.999C88.6924 250.769 89.2575 250.655 89.8721 250.655C90.846 250.655 91.609 250.9 92.1611 251.389C92.7132 251.874 92.9997 252.543 93.0205 253.397V257.288C93.0205 258.064 93.1195 258.681 93.3174 259.139V259.264H91.8018ZM89.4033 258.163C89.8564 258.163 90.2861 258.045 90.6924 257.811C91.0986 257.577 91.3929 257.272 91.5752 256.897V255.163H90.4424C88.6715 255.163 87.7861 255.681 87.7861 256.717C87.7861 257.17 87.9372 257.525 88.2393 257.78C88.5413 258.035 88.9294 258.163 89.4033 258.163ZM104.177 257.022C104.177 256.631 104.028 256.329 103.731 256.116C103.44 255.897 102.927 255.709 102.192 255.553C101.463 255.397 100.882 255.209 100.45 254.991C100.023 254.772 99.7054 254.512 99.4971 254.209C99.2939 253.907 99.1924 253.548 99.1924 253.131C99.1924 252.439 99.484 251.853 100.067 251.374C100.656 250.894 101.406 250.655 102.317 250.655C103.276 250.655 104.052 250.902 104.646 251.397C105.244 251.892 105.544 252.525 105.544 253.295H104.091C104.091 252.9 103.922 252.558 103.583 252.272C103.25 251.986 102.828 251.842 102.317 251.842C101.791 251.842 101.38 251.957 101.083 252.186C100.786 252.415 100.638 252.715 100.638 253.084C100.638 253.433 100.776 253.696 101.052 253.874C101.328 254.051 101.825 254.22 102.544 254.381C103.268 254.543 103.854 254.736 104.302 254.959C104.75 255.183 105.08 255.454 105.294 255.772C105.513 256.084 105.622 256.467 105.622 256.92C105.622 257.676 105.32 258.282 104.716 258.741C104.112 259.194 103.328 259.42 102.364 259.42C101.687 259.42 101.088 259.301 100.567 259.061C100.047 258.821 99.6377 258.488 99.3408 258.061C99.0492 257.629 98.9033 257.163 98.9033 256.663H100.349C100.375 257.147 100.567 257.532 100.927 257.819C101.291 258.1 101.771 258.241 102.364 258.241C102.911 258.241 103.349 258.131 103.677 257.913C104.01 257.689 104.177 257.392 104.177 257.022ZM108.95 251.834C109.591 251.048 110.424 250.655 111.45 250.655C113.237 250.655 114.138 251.663 114.153 253.678V259.264H112.708V253.67C112.703 253.061 112.562 252.611 112.286 252.319C112.015 252.027 111.591 251.881 111.013 251.881C110.544 251.881 110.132 252.006 109.778 252.256C109.424 252.506 109.148 252.834 108.95 253.241V259.264H107.505V247.264H108.95V251.834ZM119.825 259.42C118.679 259.42 117.747 259.045 117.028 258.295C116.31 257.54 115.95 256.532 115.95 255.272V255.006C115.95 254.168 116.109 253.42 116.427 252.764C116.75 252.103 117.198 251.587 117.771 251.217C118.349 250.842 118.974 250.655 119.646 250.655C120.744 250.655 121.599 251.017 122.208 251.741C122.817 252.465 123.122 253.501 123.122 254.85V255.452H117.396C117.416 256.285 117.659 256.959 118.122 257.475C118.591 257.986 119.185 258.241 119.903 258.241C120.414 258.241 120.846 258.137 121.2 257.928C121.554 257.72 121.864 257.444 122.13 257.1L123.013 257.788C122.304 258.876 121.242 259.42 119.825 259.42ZM119.646 251.842C119.062 251.842 118.573 252.056 118.177 252.483C117.781 252.905 117.536 253.499 117.442 254.264H121.677V254.155C121.635 253.42 121.437 252.853 121.083 252.452C120.729 252.045 120.25 251.842 119.646 251.842ZM128.31 259.42C127.164 259.42 126.231 259.045 125.513 258.295C124.794 257.54 124.435 256.532 124.435 255.272V255.006C124.435 254.168 124.593 253.42 124.911 252.764C125.234 252.103 125.682 251.587 126.255 251.217C126.833 250.842 127.458 250.655 128.13 250.655C129.229 250.655 130.083 251.017 130.692 251.741C131.302 252.465 131.606 253.501 131.606 254.85V255.452H125.88C125.901 256.285 126.143 256.959 126.606 257.475C127.075 257.986 127.669 258.241 128.388 258.241C128.898 258.241 129.33 258.137 129.685 257.928C130.039 257.72 130.349 257.444 130.614 257.1L131.497 257.788C130.789 258.876 129.726 259.42 128.31 259.42ZM128.13 251.842C127.547 251.842 127.057 252.056 126.661 252.483C126.265 252.905 126.021 253.499 125.927 254.264H130.161V254.155C130.119 253.42 129.922 252.853 129.567 252.452C129.213 252.045 128.734 251.842 128.13 251.842ZM135.247 248.764V250.811H136.825V251.928H135.247V257.17C135.247 257.509 135.317 257.764 135.458 257.936C135.599 258.103 135.838 258.186 136.177 258.186C136.343 258.186 136.573 258.155 136.864 258.092V259.264C136.484 259.368 136.114 259.42 135.755 259.42C135.109 259.42 134.622 259.225 134.294 258.834C133.966 258.444 133.802 257.889 133.802 257.17V251.928H132.263V250.811H133.802V248.764H135.247Z" fill="#727272"/>
<path d="M63.9814 305.764H62.4814V294.389H63.9814V305.764ZM67.8643 297.311L67.9033 298.249C68.5231 297.519 69.359 297.155 70.4111 297.155C71.5934 297.155 72.3981 297.608 72.8252 298.514C73.1064 298.108 73.471 297.78 73.9189 297.53C74.3721 297.28 74.9059 297.155 75.5205 297.155C77.3747 297.155 78.3174 298.137 78.3486 300.1V305.764H76.9033V300.186C76.9033 299.582 76.7653 299.131 76.4893 298.834C76.2132 298.532 75.7497 298.381 75.0986 298.381C74.5622 298.381 74.1169 298.543 73.7627 298.866C73.4085 299.183 73.2028 299.613 73.1455 300.155V305.764H71.6924V300.225C71.6924 298.996 71.0908 298.381 69.8877 298.381C68.9398 298.381 68.2913 298.785 67.9424 299.592V305.764H66.4971V297.311H67.8643ZM87.6768 301.631C87.6768 302.918 87.3825 303.954 86.7939 304.741C86.2054 305.527 85.4085 305.92 84.4033 305.92C83.3773 305.92 82.57 305.595 81.9814 304.944V309.014H80.5361V297.311H81.8564L81.9268 298.249C82.5153 297.519 83.333 297.155 84.3799 297.155C85.3955 297.155 86.1976 297.538 86.7861 298.303C87.3799 299.069 87.6768 300.134 87.6768 301.499V301.631ZM86.2314 301.467C86.2314 300.514 86.0283 299.762 85.6221 299.209C85.2158 298.657 84.6585 298.381 83.9502 298.381C83.0752 298.381 82.4189 298.769 81.9814 299.545V303.584C82.4137 304.355 83.0752 304.741 83.9658 304.741C84.6585 304.741 85.208 304.467 85.6143 303.92C86.0257 303.368 86.2314 302.551 86.2314 301.467ZM89.1377 301.459C89.1377 300.631 89.2992 299.887 89.6221 299.225C89.9502 298.564 90.4033 298.053 90.9814 297.694C91.5648 297.334 92.2288 297.155 92.9736 297.155C94.1247 297.155 95.0544 297.553 95.7627 298.35C96.4762 299.147 96.833 300.207 96.833 301.53V301.631C96.833 302.454 96.6742 303.194 96.3564 303.85C96.0439 304.501 95.5934 305.009 95.0049 305.374C94.4215 305.738 93.7497 305.92 92.9893 305.92C91.8434 305.92 90.9137 305.522 90.2002 304.725C89.4919 303.928 89.1377 302.874 89.1377 301.561V301.459ZM90.5908 301.631C90.5908 302.569 90.807 303.321 91.2393 303.889C91.6768 304.457 92.2601 304.741 92.9893 304.741C93.7236 304.741 94.307 304.454 94.7393 303.881C95.1715 303.303 95.3877 302.496 95.3877 301.459C95.3877 300.532 95.1663 299.782 94.7236 299.209C94.2861 298.631 93.7028 298.342 92.9736 298.342C92.2601 298.342 91.6846 298.626 91.2471 299.194C90.8096 299.762 90.5908 300.574 90.5908 301.631ZM102.731 298.608C102.513 298.571 102.276 298.553 102.021 298.553C101.073 298.553 100.429 298.957 100.091 299.764V305.764H98.6455V297.311H100.052L100.075 298.288C100.549 297.532 101.221 297.155 102.091 297.155C102.372 297.155 102.586 297.191 102.731 297.264V298.608ZM106.419 295.264V297.311H107.997V298.428H106.419V303.67C106.419 304.009 106.489 304.264 106.63 304.436C106.771 304.603 107.01 304.686 107.349 304.686C107.515 304.686 107.744 304.655 108.036 304.592V305.764C107.656 305.868 107.286 305.92 106.927 305.92C106.281 305.92 105.794 305.725 105.466 305.334C105.138 304.944 104.974 304.389 104.974 303.67V298.428H103.435V297.311H104.974V295.264H106.419ZM113.31 301.467C113.31 300.17 113.617 299.129 114.231 298.342C114.846 297.551 115.651 297.155 116.646 297.155C117.635 297.155 118.419 297.493 118.997 298.17V293.764H120.442V305.764H119.114L119.044 304.858C118.466 305.566 117.661 305.92 116.63 305.92C115.651 305.92 114.851 305.519 114.231 304.717C113.617 303.915 113.31 302.868 113.31 301.577V301.467ZM114.755 301.631C114.755 302.59 114.953 303.34 115.349 303.881C115.744 304.423 116.291 304.694 116.989 304.694C117.906 304.694 118.575 304.282 118.997 303.459V299.577C118.565 298.78 117.901 298.381 117.005 298.381C116.297 298.381 115.744 298.655 115.349 299.202C114.953 299.749 114.755 300.558 114.755 301.631ZM127.911 305.764C127.828 305.597 127.76 305.301 127.708 304.874C127.036 305.571 126.234 305.92 125.302 305.92C124.468 305.92 123.784 305.686 123.247 305.217C122.716 304.743 122.45 304.144 122.45 303.42C122.45 302.54 122.784 301.858 123.45 301.374C124.122 300.884 125.065 300.639 126.278 300.639H127.685V299.975C127.685 299.47 127.534 299.069 127.231 298.772C126.929 298.47 126.484 298.319 125.896 298.319C125.38 298.319 124.948 298.449 124.599 298.709C124.25 298.97 124.075 299.285 124.075 299.655H122.622C122.622 299.233 122.771 298.827 123.067 298.436C123.369 298.04 123.776 297.728 124.286 297.499C124.802 297.269 125.367 297.155 125.981 297.155C126.955 297.155 127.718 297.4 128.271 297.889C128.823 298.374 129.109 299.043 129.13 299.897V303.788C129.13 304.564 129.229 305.181 129.427 305.639V305.764H127.911ZM125.513 304.663C125.966 304.663 126.396 304.545 126.802 304.311C127.208 304.077 127.502 303.772 127.685 303.397V301.663H126.552C124.781 301.663 123.896 302.181 123.896 303.217C123.896 303.67 124.047 304.025 124.349 304.28C124.651 304.535 125.039 304.663 125.513 304.663ZM133.356 295.264V297.311H134.935V298.428H133.356V303.67C133.356 304.009 133.427 304.264 133.567 304.436C133.708 304.603 133.948 304.686 134.286 304.686C134.453 304.686 134.682 304.655 134.974 304.592V305.764C134.593 305.868 134.224 305.92 133.864 305.92C133.218 305.92 132.731 305.725 132.403 305.334C132.075 304.944 131.911 304.389 131.911 303.67V298.428H130.372V297.311H131.911V295.264H133.356ZM141.849 305.764C141.765 305.597 141.698 305.301 141.646 304.874C140.974 305.571 140.172 305.92 139.239 305.92C138.406 305.92 137.721 305.686 137.185 305.217C136.653 304.743 136.388 304.144 136.388 303.42C136.388 302.54 136.721 301.858 137.388 301.374C138.06 300.884 139.002 300.639 140.216 300.639H141.622V299.975C141.622 299.47 141.471 299.069 141.169 298.772C140.867 298.47 140.422 298.319 139.833 298.319C139.317 298.319 138.885 298.449 138.536 298.709C138.187 298.97 138.013 299.285 138.013 299.655H136.56C136.56 299.233 136.708 298.827 137.005 298.436C137.307 298.04 137.713 297.728 138.224 297.499C138.739 297.269 139.304 297.155 139.919 297.155C140.893 297.155 141.656 297.4 142.208 297.889C142.76 298.374 143.047 299.043 143.067 299.897V303.788C143.067 304.564 143.166 305.181 143.364 305.639V305.764H141.849ZM139.45 304.663C139.903 304.663 140.333 304.545 140.739 304.311C141.146 304.077 141.44 303.772 141.622 303.397V301.663H140.489C138.718 301.663 137.833 302.181 137.833 303.217C137.833 303.67 137.984 304.025 138.286 304.28C138.588 304.535 138.976 304.663 139.45 304.663Z" fill="#727272"/>
<path d="M64.3096 22.8892L68.0283 32.1704L71.7471 22.8892H73.6924V34.2642H72.1924V29.8345L72.333 25.0532L68.5986 34.2642H67.4502L63.7236 25.0767L63.8721 29.8345V34.2642H62.3721V22.8892H64.3096ZM79.6221 34.4204C78.4762 34.4204 77.5439 34.0454 76.8252 33.2954C76.1064 32.5402 75.7471 31.5324 75.7471 30.272V30.0063C75.7471 29.1678 75.9059 28.4204 76.2236 27.7642C76.5465 27.1027 76.9945 26.5871 77.5674 26.2173C78.1455 25.8423 78.7705 25.6548 79.4424 25.6548C80.5413 25.6548 81.3955 26.0168 82.0049 26.7407C82.6143 27.4647 82.9189 28.5011 82.9189 29.8501V30.4517H77.1924C77.2132 31.285 77.4554 31.9595 77.9189 32.4751C78.3877 32.9855 78.9814 33.2407 79.7002 33.2407C80.2106 33.2407 80.6429 33.1366 80.9971 32.9282C81.3512 32.7199 81.6611 32.4438 81.9268 32.1001L82.8096 32.7876C82.1012 33.8761 81.0387 34.4204 79.6221 34.4204ZM79.4424 26.8423C78.859 26.8423 78.3695 27.0558 77.9736 27.4829C77.5778 27.9048 77.333 28.4985 77.2393 29.2642H81.4736V29.1548C81.432 28.4204 81.234 27.8527 80.8799 27.4517C80.5257 27.0454 80.0465 26.8423 79.4424 26.8423ZM85.9658 25.811L86.0127 26.8735C86.6585 26.061 87.5023 25.6548 88.5439 25.6548C90.3304 25.6548 91.2314 26.6626 91.2471 28.6782V34.2642H89.8018V28.6704C89.7965 28.061 89.6559 27.6105 89.3799 27.3188C89.109 27.0272 88.6846 26.8813 88.1064 26.8813C87.6377 26.8813 87.2262 27.0063 86.8721 27.2563C86.5179 27.5063 86.2419 27.8345 86.0439 28.2407V34.2642H84.5986V25.811H85.9658ZM98.6455 33.4282C98.083 34.0897 97.2575 34.4204 96.1689 34.4204C95.2679 34.4204 94.5804 34.16 94.1064 33.6392C93.6377 33.1131 93.4007 32.3371 93.3955 31.311V25.811H94.8408V31.272C94.8408 32.5532 95.3617 33.1938 96.4033 33.1938C97.5075 33.1938 98.2419 32.7824 98.6064 31.9595V25.811H100.052V34.2642H98.6768L98.6455 33.4282Z" fill="#727272"/>
<path d="M43.4072 34.9517H29.626C29.5486 34.9517 29.4854 34.8884 29.4854 34.811V33.686C29.4854 33.6087 29.5486 33.5454 29.626 33.5454H43.4072C43.4846 33.5454 43.5479 33.6087 43.5479 33.686V34.811C43.5479 34.8884 43.4846 34.9517 43.4072 34.9517ZM43.4072 23.9829H29.626C29.5486 23.9829 29.4854 23.9196 29.4854 23.8423V22.7173C29.4854 22.6399 29.5486 22.5767 29.626 22.5767H43.4072C43.4846 22.5767 43.5479 22.6399 43.5479 22.7173V23.8423C43.5479 23.9196 43.4846 23.9829 43.4072 23.9829ZM43.4072 29.4673H29.626C29.5486 29.4673 29.4854 29.404 29.4854 29.3267V28.2017C29.4854 28.1243 29.5486 28.061 29.626 28.061H43.4072C43.4846 28.061 43.5479 28.1243 43.5479 28.2017V29.3267C43.5479 29.404 43.4846 29.4673 43.4072 29.4673Z" fill="#727272"/>
<g filter="url(#filter7_d)">
<rect x="199.5" y="77.7642" width="107" height="118" fill="white"/>
</g>
<rect x="199.5" y="82.7642" width="107" height="35" fill="#7166F8" fill-opacity="0.1"/>
<path d="M230.74 106.764H229.232L223.506 97.9985V106.764H221.998V95.3892H223.506L229.248 104.194V95.3892H230.74V106.764ZM232.795 102.459C232.795 101.631 232.956 100.887 233.279 100.225C233.607 99.5636 234.061 99.0532 234.639 98.6938C235.222 98.3345 235.886 98.1548 236.631 98.1548C237.782 98.1548 238.712 98.5532 239.42 99.3501C240.133 100.147 240.49 101.207 240.49 102.53V102.631C240.49 103.454 240.331 104.194 240.014 104.85C239.701 105.501 239.251 106.009 238.662 106.374C238.079 106.738 237.407 106.92 236.646 106.92C235.501 106.92 234.571 106.522 233.857 105.725C233.149 104.928 232.795 103.874 232.795 102.561V102.459ZM234.248 102.631C234.248 103.569 234.464 104.321 234.896 104.889C235.334 105.457 235.917 105.741 236.646 105.741C237.381 105.741 237.964 105.454 238.396 104.881C238.829 104.303 239.045 103.496 239.045 102.459C239.045 101.532 238.824 100.782 238.381 100.209C237.943 99.6313 237.36 99.3423 236.631 99.3423C235.917 99.3423 235.342 99.6261 234.904 100.194C234.467 100.762 234.248 101.574 234.248 102.631ZM241.951 102.467C241.951 101.17 242.258 100.129 242.873 99.3423C243.488 98.5506 244.292 98.1548 245.287 98.1548C246.277 98.1548 247.061 98.4933 247.639 99.1704V94.7642H249.084V106.764H247.756L247.686 105.858C247.107 106.566 246.303 106.92 245.271 106.92C244.292 106.92 243.493 106.519 242.873 105.717C242.258 104.915 241.951 103.868 241.951 102.577V102.467ZM243.396 102.631C243.396 103.59 243.594 104.34 243.99 104.881C244.386 105.423 244.933 105.694 245.631 105.694C246.548 105.694 247.217 105.282 247.639 104.459V100.577C247.206 99.7798 246.542 99.3813 245.646 99.3813C244.938 99.3813 244.386 99.6548 243.99 100.202C243.594 100.749 243.396 101.558 243.396 102.631ZM254.842 106.92C253.696 106.92 252.764 106.545 252.045 105.795C251.326 105.04 250.967 104.032 250.967 102.772V102.506C250.967 101.668 251.126 100.92 251.443 100.264C251.766 99.6027 252.214 99.0871 252.787 98.7173C253.365 98.3423 253.99 98.1548 254.662 98.1548C255.761 98.1548 256.615 98.5168 257.225 99.2407C257.834 99.9647 258.139 101.001 258.139 102.35V102.952H252.412C252.433 103.785 252.675 104.459 253.139 104.975C253.607 105.486 254.201 105.741 254.92 105.741C255.43 105.741 255.863 105.637 256.217 105.428C256.571 105.22 256.881 104.944 257.146 104.6L258.029 105.288C257.321 106.376 256.258 106.92 254.842 106.92ZM254.662 99.3423C254.079 99.3423 253.589 99.5558 253.193 99.9829C252.798 100.405 252.553 100.999 252.459 101.764H256.693V101.655C256.652 100.92 256.454 100.353 256.1 99.9517C255.745 99.5454 255.266 99.3423 254.662 99.3423Z" fill="#7D74ED"/>
<path d="M227.475 139.97H232.865V141.196H225.967V129.821H227.475V139.97ZM239.568 141.196C239.485 141.03 239.417 140.733 239.365 140.306C238.693 141.004 237.891 141.353 236.959 141.353C236.126 141.353 235.441 141.118 234.904 140.649C234.373 140.175 234.107 139.576 234.107 138.853C234.107 137.972 234.441 137.29 235.107 136.806C235.779 136.316 236.722 136.071 237.936 136.071H239.342V135.407C239.342 134.902 239.191 134.501 238.889 134.204C238.587 133.902 238.141 133.751 237.553 133.751C237.037 133.751 236.605 133.881 236.256 134.142C235.907 134.402 235.732 134.717 235.732 135.087H234.279C234.279 134.665 234.428 134.259 234.725 133.868C235.027 133.472 235.433 133.16 235.943 132.931C236.459 132.701 237.024 132.587 237.639 132.587C238.613 132.587 239.376 132.832 239.928 133.321C240.48 133.806 240.766 134.475 240.787 135.329V139.22C240.787 139.996 240.886 140.613 241.084 141.071V141.196H239.568ZM237.17 140.095C237.623 140.095 238.053 139.978 238.459 139.743C238.865 139.509 239.16 139.204 239.342 138.829V137.095H238.209C236.438 137.095 235.553 137.613 235.553 138.649C235.553 139.103 235.704 139.457 236.006 139.712C236.308 139.967 236.696 140.095 237.17 140.095ZM250.209 137.063C250.209 138.355 249.912 139.394 249.318 140.181C248.725 140.962 247.928 141.353 246.928 141.353C245.86 141.353 245.035 140.975 244.451 140.22L244.381 141.196H243.053V129.196H244.498V133.673C245.081 132.949 245.886 132.587 246.912 132.587C247.938 132.587 248.743 132.975 249.326 133.751C249.915 134.527 250.209 135.59 250.209 136.938V137.063ZM248.764 136.899C248.764 135.915 248.574 135.155 248.193 134.618C247.813 134.082 247.266 133.813 246.553 133.813C245.6 133.813 244.915 134.256 244.498 135.142V138.798C244.941 139.683 245.631 140.126 246.568 140.126C247.261 140.126 247.8 139.858 248.186 139.321C248.571 138.785 248.764 137.978 248.764 136.899ZM255.545 141.353C254.399 141.353 253.467 140.978 252.748 140.228C252.029 139.472 251.67 138.465 251.67 137.204V136.938C251.67 136.1 251.829 135.353 252.146 134.696C252.469 134.035 252.917 133.519 253.49 133.149C254.068 132.774 254.693 132.587 255.365 132.587C256.464 132.587 257.318 132.949 257.928 133.673C258.537 134.397 258.842 135.433 258.842 136.782V137.384H253.115C253.136 138.217 253.378 138.892 253.842 139.407C254.311 139.918 254.904 140.173 255.623 140.173C256.133 140.173 256.566 140.069 256.92 139.86C257.274 139.652 257.584 139.376 257.85 139.032L258.732 139.72C258.024 140.808 256.962 141.353 255.545 141.353ZM255.365 133.774C254.782 133.774 254.292 133.988 253.896 134.415C253.501 134.837 253.256 135.431 253.162 136.196H257.396V136.087C257.355 135.353 257.157 134.785 256.803 134.384C256.449 133.978 255.969 133.774 255.365 133.774ZM262.092 141.196H260.646V129.196H262.092V141.196Z" fill="#9F9F9F"/>
<path d="M232.24 170.605H227.467V175.629H225.967V164.254H233.014V165.488H227.467V169.379H232.24V170.605ZM234.029 171.324C234.029 170.496 234.191 169.751 234.514 169.09C234.842 168.428 235.295 167.918 235.873 167.558C236.456 167.199 237.12 167.019 237.865 167.019C239.016 167.019 239.946 167.418 240.654 168.215C241.368 169.011 241.725 170.071 241.725 171.394V171.496C241.725 172.319 241.566 173.058 241.248 173.715C240.936 174.366 240.485 174.873 239.896 175.238C239.313 175.603 238.641 175.785 237.881 175.785C236.735 175.785 235.805 175.386 235.092 174.59C234.383 173.793 234.029 172.738 234.029 171.426V171.324ZM235.482 171.496C235.482 172.433 235.699 173.186 236.131 173.754C236.568 174.321 237.152 174.605 237.881 174.605C238.615 174.605 239.199 174.319 239.631 173.746C240.063 173.168 240.279 172.36 240.279 171.324C240.279 170.397 240.058 169.647 239.615 169.074C239.178 168.496 238.594 168.207 237.865 168.207C237.152 168.207 236.576 168.491 236.139 169.058C235.701 169.626 235.482 170.439 235.482 171.496ZM245.107 175.629H243.662V163.629H245.107V175.629ZM247.076 171.332C247.076 170.035 247.383 168.993 247.998 168.207C248.613 167.415 249.417 167.019 250.412 167.019C251.402 167.019 252.186 167.358 252.764 168.035V163.629H254.209V175.629H252.881L252.811 174.722C252.232 175.431 251.428 175.785 250.396 175.785C249.417 175.785 248.618 175.384 247.998 174.582C247.383 173.78 247.076 172.733 247.076 171.441V171.332ZM248.521 171.496C248.521 172.454 248.719 173.204 249.115 173.746C249.511 174.288 250.058 174.558 250.756 174.558C251.673 174.558 252.342 174.147 252.764 173.324V169.441C252.331 168.644 251.667 168.246 250.771 168.246C250.063 168.246 249.511 168.519 249.115 169.066C248.719 169.613 248.521 170.423 248.521 171.496ZM259.967 175.785C258.821 175.785 257.889 175.41 257.17 174.66C256.451 173.905 256.092 172.897 256.092 171.636V171.371C256.092 170.532 256.251 169.785 256.568 169.129C256.891 168.467 257.339 167.952 257.912 167.582C258.49 167.207 259.115 167.019 259.787 167.019C260.886 167.019 261.74 167.381 262.35 168.105C262.959 168.829 263.264 169.866 263.264 171.215V171.816H257.537C257.558 172.649 257.8 173.324 258.264 173.84C258.732 174.35 259.326 174.605 260.045 174.605C260.555 174.605 260.988 174.501 261.342 174.293C261.696 174.084 262.006 173.808 262.271 173.465L263.154 174.152C262.446 175.241 261.383 175.785 259.967 175.785ZM259.787 168.207C259.204 168.207 258.714 168.42 258.318 168.847C257.923 169.269 257.678 169.863 257.584 170.629H261.818V170.519C261.777 169.785 261.579 169.217 261.225 168.816C260.87 168.41 260.391 168.207 259.787 168.207ZM269.029 168.472C268.811 168.436 268.574 168.418 268.318 168.418C267.37 168.418 266.727 168.821 266.389 169.629V175.629H264.943V167.176H266.35L266.373 168.152C266.847 167.397 267.519 167.019 268.389 167.019C268.67 167.019 268.883 167.056 269.029 167.129V168.472Z" fill="#9F9F9F"/>
<path d="M275.187 96.1329L275.187 106.395C275.187 106.703 275.512 106.875 275.734 106.684L281.684 101.553C281.855 101.406 281.855 101.124 281.684 100.975L275.734 95.8439C275.512 95.6532 275.187 95.8251 275.187 96.1329Z" fill="#7E75EF"/>
<path d="M275.187 131.092L275.187 141.354C275.187 141.662 275.512 141.834 275.734 141.643L281.684 136.512C281.855 136.365 281.855 136.083 281.684 135.934L275.734 130.803C275.512 130.612 275.187 130.784 275.187 131.092Z" fill="#7E75EF"/>
<g filter="url(#filter8_d)">
<rect x="312.5" y="101.764" width="162" height="184" fill="white"/>
</g>
<rect x="312.5" y="141.723" width="162.246" height="35.2556" fill="#7166F8" fill-opacity="0.1"/>
<path d="M343.74 132.196H342.232L336.506 123.431V132.196H334.998V120.821H336.506L342.248 129.626V120.821H343.74V132.196ZM349.686 132.353C348.54 132.353 347.607 131.978 346.889 131.228C346.17 130.472 345.811 129.465 345.811 128.204V127.938C345.811 127.1 345.969 126.353 346.287 125.696C346.61 125.035 347.058 124.519 347.631 124.149C348.209 123.774 348.834 123.587 349.506 123.587C350.605 123.587 351.459 123.949 352.068 124.673C352.678 125.397 352.982 126.433 352.982 127.782V128.384H347.256C347.277 129.217 347.519 129.892 347.982 130.407C348.451 130.918 349.045 131.173 349.764 131.173C350.274 131.173 350.706 131.069 351.061 130.86C351.415 130.652 351.725 130.376 351.99 130.032L352.873 130.72C352.165 131.808 351.102 132.353 349.686 132.353ZM349.506 124.774C348.923 124.774 348.433 124.988 348.037 125.415C347.641 125.837 347.396 126.431 347.303 127.196H351.537V127.087C351.495 126.353 351.298 125.785 350.943 125.384C350.589 124.978 350.11 124.774 349.506 124.774ZM362.146 130.204L363.771 123.743H365.217L362.756 132.196H361.584L359.529 125.79L357.529 132.196H356.357L353.904 123.743H355.342L357.006 130.071L358.975 123.743H360.139L362.146 130.204Z" fill="#9F9F9F"/>
<path d="M343.006 155.253V162.988C343.001 164.061 342.662 164.938 341.99 165.621C341.324 166.303 340.417 166.686 339.271 166.769L338.873 166.785C337.628 166.785 336.636 166.449 335.896 165.777C335.157 165.105 334.782 164.181 334.771 163.003V155.253H336.256V162.957C336.256 163.779 336.482 164.42 336.936 164.878C337.389 165.332 338.035 165.558 338.873 165.558C339.722 165.558 340.37 165.332 340.818 164.878C341.271 164.425 341.498 163.787 341.498 162.964V155.253H343.006ZM350.068 164.386C350.068 163.996 349.92 163.694 349.623 163.48C349.331 163.261 348.818 163.074 348.084 162.917C347.355 162.761 346.774 162.574 346.342 162.355C345.915 162.136 345.597 161.876 345.389 161.574C345.186 161.272 345.084 160.912 345.084 160.496C345.084 159.803 345.376 159.217 345.959 158.738C346.548 158.259 347.298 158.019 348.209 158.019C349.167 158.019 349.943 158.266 350.537 158.761C351.136 159.256 351.436 159.889 351.436 160.66H349.982C349.982 160.264 349.813 159.923 349.475 159.636C349.141 159.35 348.719 159.207 348.209 159.207C347.683 159.207 347.271 159.321 346.975 159.55C346.678 159.779 346.529 160.079 346.529 160.449C346.529 160.798 346.667 161.061 346.943 161.238C347.219 161.415 347.717 161.584 348.436 161.746C349.16 161.907 349.745 162.1 350.193 162.324C350.641 162.548 350.972 162.819 351.186 163.136C351.404 163.449 351.514 163.832 351.514 164.285C351.514 165.04 351.212 165.647 350.607 166.105C350.003 166.558 349.219 166.785 348.256 166.785C347.579 166.785 346.98 166.665 346.459 166.425C345.938 166.186 345.529 165.852 345.232 165.425C344.941 164.993 344.795 164.527 344.795 164.027H346.24C346.266 164.511 346.459 164.897 346.818 165.183C347.183 165.464 347.662 165.605 348.256 165.605C348.803 165.605 349.24 165.496 349.568 165.277C349.902 165.053 350.068 164.756 350.068 164.386ZM356.904 166.785C355.758 166.785 354.826 166.41 354.107 165.66C353.389 164.904 353.029 163.897 353.029 162.636V162.371C353.029 161.532 353.188 160.785 353.506 160.128C353.829 159.467 354.277 158.951 354.85 158.582C355.428 158.207 356.053 158.019 356.725 158.019C357.824 158.019 358.678 158.381 359.287 159.105C359.896 159.829 360.201 160.865 360.201 162.214V162.816H354.475C354.495 163.649 354.738 164.324 355.201 164.839C355.67 165.35 356.264 165.605 356.982 165.605C357.493 165.605 357.925 165.501 358.279 165.292C358.633 165.084 358.943 164.808 359.209 164.464L360.092 165.152C359.383 166.24 358.321 166.785 356.904 166.785ZM356.725 159.207C356.141 159.207 355.652 159.42 355.256 159.847C354.86 160.269 354.615 160.863 354.521 161.628H358.756V161.519C358.714 160.785 358.516 160.217 358.162 159.816C357.808 159.41 357.329 159.207 356.725 159.207ZM367.209 158.175L367.248 159.113C367.868 158.384 368.704 158.019 369.756 158.019C370.938 158.019 371.743 158.472 372.17 159.378C372.451 158.972 372.816 158.644 373.264 158.394C373.717 158.144 374.251 158.019 374.865 158.019C376.719 158.019 377.662 159.001 377.693 160.964V166.628H376.248V161.05C376.248 160.446 376.11 159.996 375.834 159.699C375.558 159.397 375.094 159.246 374.443 159.246C373.907 159.246 373.462 159.407 373.107 159.73C372.753 160.048 372.548 160.477 372.49 161.019V166.628H371.037V161.089C371.037 159.86 370.436 159.246 369.232 159.246C368.285 159.246 367.636 159.649 367.287 160.457V166.628H365.842V158.175H367.209ZM385.1 166.628C385.016 166.462 384.949 166.165 384.896 165.738C384.225 166.436 383.423 166.785 382.49 166.785C381.657 166.785 380.972 166.55 380.436 166.082C379.904 165.608 379.639 165.009 379.639 164.285C379.639 163.404 379.972 162.722 380.639 162.238C381.311 161.748 382.253 161.503 383.467 161.503H384.873V160.839C384.873 160.334 384.722 159.933 384.42 159.636C384.118 159.334 383.673 159.183 383.084 159.183C382.568 159.183 382.136 159.313 381.787 159.574C381.438 159.834 381.264 160.149 381.264 160.519H379.811C379.811 160.097 379.959 159.691 380.256 159.3C380.558 158.904 380.964 158.592 381.475 158.363C381.99 158.134 382.555 158.019 383.17 158.019C384.144 158.019 384.907 158.264 385.459 158.753C386.011 159.238 386.298 159.907 386.318 160.761V164.652C386.318 165.428 386.417 166.045 386.615 166.503V166.628H385.1ZM382.701 165.527C383.154 165.527 383.584 165.41 383.99 165.175C384.396 164.941 384.691 164.636 384.873 164.261V162.527H383.74C381.969 162.527 381.084 163.045 381.084 164.082C381.084 164.535 381.235 164.889 381.537 165.144C381.839 165.399 382.227 165.527 382.701 165.527ZM395.725 162.496C395.725 163.782 395.43 164.819 394.842 165.605C394.253 166.391 393.456 166.785 392.451 166.785C391.425 166.785 390.618 166.459 390.029 165.808V169.878H388.584V158.175H389.904L389.975 159.113C390.563 158.384 391.381 158.019 392.428 158.019C393.443 158.019 394.245 158.402 394.834 159.167C395.428 159.933 395.725 160.998 395.725 162.363V162.496ZM394.279 162.332C394.279 161.378 394.076 160.626 393.67 160.074C393.264 159.522 392.706 159.246 391.998 159.246C391.123 159.246 390.467 159.634 390.029 160.41V164.449C390.462 165.22 391.123 165.605 392.014 165.605C392.706 165.605 393.256 165.332 393.662 164.785C394.074 164.233 394.279 163.415 394.279 162.332Z" fill="#7166F8"/>
<path d="M343.006 220.686V228.42C343.001 229.493 342.662 230.37 341.99 231.053C341.324 231.735 340.417 232.118 339.271 232.201L338.873 232.217C337.628 232.217 336.636 231.881 335.896 231.209C335.157 230.537 334.782 229.613 334.771 228.436V220.686H336.256V228.389C336.256 229.212 336.482 229.852 336.936 230.311C337.389 230.764 338.035 230.99 338.873 230.99C339.722 230.99 340.37 230.764 340.818 230.311C341.271 229.857 341.498 229.219 341.498 228.396V220.686H343.006ZM350.068 229.818C350.068 229.428 349.92 229.126 349.623 228.912C349.331 228.693 348.818 228.506 348.084 228.35C347.355 228.193 346.774 228.006 346.342 227.787C345.915 227.568 345.597 227.308 345.389 227.006C345.186 226.704 345.084 226.344 345.084 225.928C345.084 225.235 345.376 224.649 345.959 224.17C346.548 223.691 347.298 223.451 348.209 223.451C349.167 223.451 349.943 223.699 350.537 224.193C351.136 224.688 351.436 225.321 351.436 226.092H349.982C349.982 225.696 349.813 225.355 349.475 225.068C349.141 224.782 348.719 224.639 348.209 224.639C347.683 224.639 347.271 224.753 346.975 224.982C346.678 225.212 346.529 225.511 346.529 225.881C346.529 226.23 346.667 226.493 346.943 226.67C347.219 226.847 347.717 227.016 348.436 227.178C349.16 227.339 349.745 227.532 350.193 227.756C350.641 227.98 350.972 228.251 351.186 228.568C351.404 228.881 351.514 229.264 351.514 229.717C351.514 230.472 351.212 231.079 350.607 231.537C350.003 231.99 349.219 232.217 348.256 232.217C347.579 232.217 346.98 232.097 346.459 231.857C345.938 231.618 345.529 231.285 345.232 230.857C344.941 230.425 344.795 229.959 344.795 229.459H346.24C346.266 229.943 346.459 230.329 346.818 230.615C347.183 230.896 347.662 231.037 348.256 231.037C348.803 231.037 349.24 230.928 349.568 230.709C349.902 230.485 350.068 230.188 350.068 229.818ZM356.904 232.217C355.758 232.217 354.826 231.842 354.107 231.092C353.389 230.337 353.029 229.329 353.029 228.068V227.803C353.029 226.964 353.188 226.217 353.506 225.561C353.829 224.899 354.277 224.383 354.85 224.014C355.428 223.639 356.053 223.451 356.725 223.451C357.824 223.451 358.678 223.813 359.287 224.537C359.896 225.261 360.201 226.298 360.201 227.646V228.248H354.475C354.495 229.081 354.738 229.756 355.201 230.271C355.67 230.782 356.264 231.037 356.982 231.037C357.493 231.037 357.925 230.933 358.279 230.725C358.633 230.516 358.943 230.24 359.209 229.896L360.092 230.584C359.383 231.673 358.321 232.217 356.904 232.217ZM356.725 224.639C356.141 224.639 355.652 224.852 355.256 225.279C354.86 225.701 354.615 226.295 354.521 227.061H358.756V226.951C358.714 226.217 358.516 225.649 358.162 225.248C357.808 224.842 357.329 224.639 356.725 224.639ZM368.529 228.475L368.748 229.975L369.068 228.623L371.318 220.686H372.584L374.779 228.623L375.092 229.998L375.334 228.467L377.1 220.686H378.607L375.85 232.061H374.482L372.139 223.771L371.959 222.904L371.779 223.771L369.35 232.061H367.982L365.232 220.686H366.732L368.529 228.475ZM381.623 232.061H380.178V223.607H381.623V232.061ZM380.061 221.365C380.061 221.131 380.131 220.933 380.271 220.771C380.417 220.61 380.631 220.529 380.912 220.529C381.193 220.529 381.407 220.61 381.553 220.771C381.699 220.933 381.771 221.131 381.771 221.365C381.771 221.6 381.699 221.795 381.553 221.951C381.407 222.107 381.193 222.186 380.912 222.186C380.631 222.186 380.417 222.107 380.271 221.951C380.131 221.795 380.061 221.6 380.061 221.365ZM386.303 228.146L385.396 229.092V232.061H383.951V220.061H385.396V227.318L386.17 226.389L388.803 223.607H390.561L387.271 227.139L390.943 232.061H389.248L386.303 228.146ZM393.623 232.061H392.178V223.607H393.623V232.061ZM392.061 221.365C392.061 221.131 392.131 220.933 392.271 220.771C392.417 220.61 392.631 220.529 392.912 220.529C393.193 220.529 393.407 220.61 393.553 220.771C393.699 220.933 393.771 221.131 393.771 221.365C393.771 221.6 393.699 221.795 393.553 221.951C393.407 222.107 393.193 222.186 392.912 222.186C392.631 222.186 392.417 222.107 392.271 221.951C392.131 221.795 392.061 221.6 392.061 221.365ZM403.084 227.928C403.084 229.214 402.79 230.251 402.201 231.037C401.613 231.824 400.816 232.217 399.811 232.217C398.785 232.217 397.977 231.891 397.389 231.24V235.311H395.943V223.607H397.264L397.334 224.545C397.923 223.816 398.74 223.451 399.787 223.451C400.803 223.451 401.605 223.834 402.193 224.6C402.787 225.365 403.084 226.43 403.084 227.795V227.928ZM401.639 227.764C401.639 226.811 401.436 226.058 401.029 225.506C400.623 224.954 400.066 224.678 399.357 224.678C398.482 224.678 397.826 225.066 397.389 225.842V229.881C397.821 230.652 398.482 231.037 399.373 231.037C400.066 231.037 400.615 230.764 401.021 230.217C401.433 229.665 401.639 228.847 401.639 227.764ZM408.436 232.217C407.29 232.217 406.357 231.842 405.639 231.092C404.92 230.337 404.561 229.329 404.561 228.068V227.803C404.561 226.964 404.719 226.217 405.037 225.561C405.36 224.899 405.808 224.383 406.381 224.014C406.959 223.639 407.584 223.451 408.256 223.451C409.355 223.451 410.209 223.813 410.818 224.537C411.428 225.261 411.732 226.298 411.732 227.646V228.248H406.006C406.027 229.081 406.269 229.756 406.732 230.271C407.201 230.782 407.795 231.037 408.514 231.037C409.024 231.037 409.456 230.933 409.811 230.725C410.165 230.516 410.475 230.24 410.74 229.896L411.623 230.584C410.915 231.673 409.852 232.217 408.436 232.217ZM408.256 224.639C407.673 224.639 407.183 224.852 406.787 225.279C406.391 225.701 406.146 226.295 406.053 227.061H410.287V226.951C410.245 226.217 410.048 225.649 409.693 225.248C409.339 224.842 408.86 224.639 408.256 224.639ZM413.061 227.764C413.061 226.467 413.368 225.425 413.982 224.639C414.597 223.847 415.402 223.451 416.396 223.451C417.386 223.451 418.17 223.79 418.748 224.467V220.061H420.193V232.061H418.865L418.795 231.154C418.217 231.863 417.412 232.217 416.381 232.217C415.402 232.217 414.602 231.816 413.982 231.014C413.368 230.212 413.061 229.165 413.061 227.873V227.764ZM414.506 227.928C414.506 228.886 414.704 229.636 415.1 230.178C415.495 230.719 416.042 230.99 416.74 230.99C417.657 230.99 418.326 230.579 418.748 229.756V225.873C418.316 225.076 417.652 224.678 416.756 224.678C416.048 224.678 415.495 224.951 415.1 225.498C414.704 226.045 414.506 226.855 414.506 227.928ZM424.014 232.061H422.568V223.607H424.014V232.061ZM422.451 221.365C422.451 221.131 422.521 220.933 422.662 220.771C422.808 220.61 423.021 220.529 423.303 220.529C423.584 220.529 423.798 220.61 423.943 220.771C424.089 220.933 424.162 221.131 424.162 221.365C424.162 221.6 424.089 221.795 423.943 221.951C423.798 222.107 423.584 222.186 423.303 222.186C423.021 222.186 422.808 222.107 422.662 221.951C422.521 221.795 422.451 221.6 422.451 221.365ZM431.553 232.061C431.469 231.894 431.402 231.597 431.35 231.17C430.678 231.868 429.876 232.217 428.943 232.217C428.11 232.217 427.425 231.982 426.889 231.514C426.357 231.04 426.092 230.441 426.092 229.717C426.092 228.837 426.425 228.154 427.092 227.67C427.764 227.18 428.706 226.936 429.92 226.936H431.326V226.271C431.326 225.766 431.175 225.365 430.873 225.068C430.571 224.766 430.126 224.615 429.537 224.615C429.021 224.615 428.589 224.745 428.24 225.006C427.891 225.266 427.717 225.581 427.717 225.951H426.264C426.264 225.529 426.412 225.123 426.709 224.732C427.011 224.337 427.417 224.024 427.928 223.795C428.443 223.566 429.008 223.451 429.623 223.451C430.597 223.451 431.36 223.696 431.912 224.186C432.464 224.67 432.751 225.339 432.771 226.193V230.084C432.771 230.86 432.87 231.477 433.068 231.936V232.061H431.553ZM429.154 230.959C429.607 230.959 430.037 230.842 430.443 230.607C430.85 230.373 431.144 230.068 431.326 229.693V227.959H430.193C428.423 227.959 427.537 228.477 427.537 229.514C427.537 229.967 427.688 230.321 427.99 230.576C428.292 230.831 428.68 230.959 429.154 230.959Z" fill="#9F9F9F"/>
<path d="M343.006 189.686V197.42C343.001 198.493 342.662 199.37 341.99 200.053C341.324 200.735 340.417 201.118 339.271 201.201L338.873 201.217C337.628 201.217 336.636 200.881 335.896 200.209C335.157 199.537 334.782 198.613 334.771 197.436V189.686H336.256V197.389C336.256 198.212 336.482 198.852 336.936 199.311C337.389 199.764 338.035 199.99 338.873 199.99C339.722 199.99 340.37 199.764 340.818 199.311C341.271 198.857 341.498 198.219 341.498 197.396V189.686H343.006ZM350.068 198.818C350.068 198.428 349.92 198.126 349.623 197.912C349.331 197.693 348.818 197.506 348.084 197.35C347.355 197.193 346.774 197.006 346.342 196.787C345.915 196.568 345.597 196.308 345.389 196.006C345.186 195.704 345.084 195.344 345.084 194.928C345.084 194.235 345.376 193.649 345.959 193.17C346.548 192.691 347.298 192.451 348.209 192.451C349.167 192.451 349.943 192.699 350.537 193.193C351.136 193.688 351.436 194.321 351.436 195.092H349.982C349.982 194.696 349.813 194.355 349.475 194.068C349.141 193.782 348.719 193.639 348.209 193.639C347.683 193.639 347.271 193.753 346.975 193.982C346.678 194.212 346.529 194.511 346.529 194.881C346.529 195.23 346.667 195.493 346.943 195.67C347.219 195.847 347.717 196.016 348.436 196.178C349.16 196.339 349.745 196.532 350.193 196.756C350.641 196.98 350.972 197.251 351.186 197.568C351.404 197.881 351.514 198.264 351.514 198.717C351.514 199.472 351.212 200.079 350.607 200.537C350.003 200.99 349.219 201.217 348.256 201.217C347.579 201.217 346.98 201.097 346.459 200.857C345.938 200.618 345.529 200.285 345.232 199.857C344.941 199.425 344.795 198.959 344.795 198.459H346.24C346.266 198.943 346.459 199.329 346.818 199.615C347.183 199.896 347.662 200.037 348.256 200.037C348.803 200.037 349.24 199.928 349.568 199.709C349.902 199.485 350.068 199.188 350.068 198.818ZM356.904 201.217C355.758 201.217 354.826 200.842 354.107 200.092C353.389 199.337 353.029 198.329 353.029 197.068V196.803C353.029 195.964 353.188 195.217 353.506 194.561C353.829 193.899 354.277 193.383 354.85 193.014C355.428 192.639 356.053 192.451 356.725 192.451C357.824 192.451 358.678 192.813 359.287 193.537C359.896 194.261 360.201 195.298 360.201 196.646V197.248H354.475C354.495 198.081 354.738 198.756 355.201 199.271C355.67 199.782 356.264 200.037 356.982 200.037C357.493 200.037 357.925 199.933 358.279 199.725C358.633 199.516 358.943 199.24 359.209 198.896L360.092 199.584C359.383 200.673 358.321 201.217 356.904 201.217ZM356.725 193.639C356.141 193.639 355.652 193.852 355.256 194.279C354.86 194.701 354.615 195.295 354.521 196.061H358.756V195.951C358.714 195.217 358.516 194.649 358.162 194.248C357.808 193.842 357.329 193.639 356.725 193.639ZM367.584 199.834H372.975V201.061H366.076V189.686H367.584V199.834ZM376.029 201.061H374.584V192.607H376.029V201.061ZM374.467 190.365C374.467 190.131 374.537 189.933 374.678 189.771C374.824 189.61 375.037 189.529 375.318 189.529C375.6 189.529 375.813 189.61 375.959 189.771C376.105 189.933 376.178 190.131 376.178 190.365C376.178 190.6 376.105 190.795 375.959 190.951C375.813 191.107 375.6 191.186 375.318 191.186C375.037 191.186 374.824 191.107 374.678 190.951C374.537 190.795 374.467 190.6 374.467 190.365ZM379.717 192.607L379.764 193.67C380.41 192.857 381.253 192.451 382.295 192.451C384.081 192.451 384.982 193.459 384.998 195.475V201.061H383.553V195.467C383.548 194.857 383.407 194.407 383.131 194.115C382.86 193.824 382.436 193.678 381.857 193.678C381.389 193.678 380.977 193.803 380.623 194.053C380.269 194.303 379.993 194.631 379.795 195.037V201.061H378.35V192.607H379.717ZM389.537 197.146L388.631 198.092V201.061H387.186V189.061H388.631V196.318L389.404 195.389L392.037 192.607H393.795L390.506 196.139L394.178 201.061H392.482L389.537 197.146ZM394.779 196.764C394.779 195.467 395.087 194.425 395.701 193.639C396.316 192.847 397.12 192.451 398.115 192.451C399.105 192.451 399.889 192.79 400.467 193.467V189.061H401.912V201.061H400.584L400.514 200.154C399.936 200.863 399.131 201.217 398.1 201.217C397.12 201.217 396.321 200.816 395.701 200.014C395.087 199.212 394.779 198.165 394.779 196.873V196.764ZM396.225 196.928C396.225 197.886 396.423 198.636 396.818 199.178C397.214 199.719 397.761 199.99 398.459 199.99C399.376 199.99 400.045 199.579 400.467 198.756V194.873C400.035 194.076 399.37 193.678 398.475 193.678C397.766 193.678 397.214 193.951 396.818 194.498C396.423 195.045 396.225 195.855 396.225 196.928ZM405.732 201.061H404.287V192.607H405.732V201.061ZM404.17 190.365C404.17 190.131 404.24 189.933 404.381 189.771C404.527 189.61 404.74 189.529 405.021 189.529C405.303 189.529 405.516 189.61 405.662 189.771C405.808 189.933 405.881 190.131 405.881 190.365C405.881 190.6 405.808 190.795 405.662 190.951C405.516 191.107 405.303 191.186 405.021 191.186C404.74 191.186 404.527 191.107 404.381 190.951C404.24 190.795 404.17 190.6 404.17 190.365ZM409.42 192.607L409.467 193.67C410.113 192.857 410.956 192.451 411.998 192.451C413.785 192.451 414.686 193.459 414.701 195.475V201.061H413.256V195.467C413.251 194.857 413.11 194.407 412.834 194.115C412.563 193.824 412.139 193.678 411.561 193.678C411.092 193.678 410.68 193.803 410.326 194.053C409.972 194.303 409.696 194.631 409.498 195.037V201.061H408.053V192.607H409.42Z" fill="#9F9F9F"/>
<path d="M343.006 252.389V260.124C343.001 261.196 342.662 262.074 341.99 262.756C341.324 263.439 340.417 263.821 339.271 263.905L338.873 263.92C337.628 263.92 336.636 263.584 335.896 262.913C335.157 262.241 334.782 261.316 334.771 260.139V252.389H336.256V260.092C336.256 260.915 336.482 261.556 336.936 262.014C337.389 262.467 338.035 262.694 338.873 262.694C339.722 262.694 340.37 262.467 340.818 262.014C341.271 261.561 341.498 260.923 341.498 260.1V252.389H343.006ZM350.068 261.522C350.068 261.131 349.92 260.829 349.623 260.616C349.331 260.397 348.818 260.209 348.084 260.053C347.355 259.897 346.774 259.709 346.342 259.491C345.915 259.272 345.597 259.012 345.389 258.709C345.186 258.407 345.084 258.048 345.084 257.631C345.084 256.939 345.376 256.353 345.959 255.874C346.548 255.394 347.298 255.155 348.209 255.155C349.167 255.155 349.943 255.402 350.537 255.897C351.136 256.392 351.436 257.025 351.436 257.795H349.982C349.982 257.4 349.813 257.058 349.475 256.772C349.141 256.486 348.719 256.342 348.209 256.342C347.683 256.342 347.271 256.457 346.975 256.686C346.678 256.915 346.529 257.215 346.529 257.584C346.529 257.933 346.667 258.196 346.943 258.374C347.219 258.551 347.717 258.72 348.436 258.881C349.16 259.043 349.745 259.236 350.193 259.459C350.641 259.683 350.972 259.954 351.186 260.272C351.404 260.584 351.514 260.967 351.514 261.42C351.514 262.176 351.212 262.782 350.607 263.241C350.003 263.694 349.219 263.92 348.256 263.92C347.579 263.92 346.98 263.801 346.459 263.561C345.938 263.321 345.529 262.988 345.232 262.561C344.941 262.129 344.795 261.663 344.795 261.163H346.24C346.266 261.647 346.459 262.032 346.818 262.319C347.183 262.6 347.662 262.741 348.256 262.741C348.803 262.741 349.24 262.631 349.568 262.413C349.902 262.189 350.068 261.892 350.068 261.522ZM356.904 263.92C355.758 263.92 354.826 263.545 354.107 262.795C353.389 262.04 353.029 261.032 353.029 259.772V259.506C353.029 258.668 353.188 257.92 353.506 257.264C353.829 256.603 354.277 256.087 354.85 255.717C355.428 255.342 356.053 255.155 356.725 255.155C357.824 255.155 358.678 255.517 359.287 256.241C359.896 256.965 360.201 258.001 360.201 259.35V259.952H354.475C354.495 260.785 354.738 261.459 355.201 261.975C355.67 262.486 356.264 262.741 356.982 262.741C357.493 262.741 357.925 262.637 358.279 262.428C358.633 262.22 358.943 261.944 359.209 261.6L360.092 262.288C359.383 263.376 358.321 263.92 356.904 263.92ZM356.725 256.342C356.141 256.342 355.652 256.556 355.256 256.983C354.86 257.405 354.615 257.999 354.521 258.764H358.756V258.655C358.714 257.92 358.516 257.353 358.162 256.952C357.808 256.545 357.329 256.342 356.725 256.342ZM368.014 252.389L371.732 261.67L375.451 252.389H377.396V263.764H375.896V259.334L376.037 254.553L372.303 263.764H371.154L367.428 254.577L367.576 259.334V263.764H366.076V252.389H368.014ZM381.389 263.764H379.943V255.311H381.389V263.764ZM379.826 253.069C379.826 252.834 379.896 252.637 380.037 252.475C380.183 252.314 380.396 252.233 380.678 252.233C380.959 252.233 381.173 252.314 381.318 252.475C381.464 252.637 381.537 252.834 381.537 253.069C381.537 253.303 381.464 253.499 381.318 253.655C381.173 253.811 380.959 253.889 380.678 253.889C380.396 253.889 380.183 253.811 380.037 253.655C379.896 253.499 379.826 253.303 379.826 253.069ZM385.076 255.311L385.123 256.374C385.769 255.561 386.613 255.155 387.654 255.155C389.441 255.155 390.342 256.163 390.357 258.178V263.764H388.912V258.17C388.907 257.561 388.766 257.111 388.49 256.819C388.219 256.527 387.795 256.381 387.217 256.381C386.748 256.381 386.337 256.506 385.982 256.756C385.628 257.006 385.352 257.334 385.154 257.741V263.764H383.709V255.311H385.076ZM392.186 259.467C392.186 258.17 392.493 257.129 393.107 256.342C393.722 255.551 394.527 255.155 395.521 255.155C396.511 255.155 397.295 255.493 397.873 256.17V251.764H399.318V263.764H397.99L397.92 262.858C397.342 263.566 396.537 263.92 395.506 263.92C394.527 263.92 393.727 263.519 393.107 262.717C392.493 261.915 392.186 260.868 392.186 259.577V259.467ZM393.631 259.631C393.631 260.59 393.829 261.34 394.225 261.881C394.62 262.423 395.167 262.694 395.865 262.694C396.782 262.694 397.451 262.282 397.873 261.459V257.577C397.441 256.78 396.777 256.381 395.881 256.381C395.173 256.381 394.62 256.655 394.225 257.202C393.829 257.749 393.631 258.558 393.631 259.631ZM409.115 258.694C407.829 258.324 406.891 257.871 406.303 257.334C405.719 256.793 405.428 256.126 405.428 255.334C405.428 254.439 405.785 253.699 406.498 253.116C407.217 252.527 408.149 252.233 409.295 252.233C410.076 252.233 410.771 252.384 411.381 252.686C411.995 252.988 412.469 253.405 412.803 253.936C413.141 254.467 413.311 255.048 413.311 255.678H411.803C411.803 254.991 411.584 254.452 411.146 254.061C410.709 253.665 410.092 253.467 409.295 253.467C408.555 253.467 407.977 253.631 407.561 253.959C407.149 254.282 406.943 254.733 406.943 255.311C406.943 255.775 407.139 256.168 407.529 256.491C407.925 256.808 408.594 257.1 409.537 257.366C410.485 257.631 411.225 257.926 411.756 258.249C412.292 258.566 412.688 258.939 412.943 259.366C413.204 259.793 413.334 260.295 413.334 260.874C413.334 261.795 412.975 262.535 412.256 263.092C411.537 263.644 410.576 263.92 409.373 263.92C408.592 263.92 407.863 263.772 407.186 263.475C406.508 263.173 405.985 262.762 405.615 262.241C405.251 261.72 405.068 261.129 405.068 260.467H406.576C406.576 261.155 406.829 261.699 407.334 262.1C407.844 262.496 408.524 262.694 409.373 262.694C410.165 262.694 410.771 262.532 411.193 262.209C411.615 261.887 411.826 261.446 411.826 260.889C411.826 260.332 411.631 259.902 411.24 259.6C410.85 259.293 410.141 258.991 409.115 258.694ZM418.428 262.741C418.943 262.741 419.394 262.584 419.779 262.272C420.165 261.959 420.378 261.569 420.42 261.1H421.787C421.761 261.584 421.594 262.045 421.287 262.483C420.98 262.92 420.568 263.269 420.053 263.53C419.542 263.79 419.001 263.92 418.428 263.92C417.277 263.92 416.36 263.538 415.678 262.772C415.001 262.001 414.662 260.949 414.662 259.616V259.374C414.662 258.551 414.813 257.819 415.115 257.178C415.417 256.538 415.85 256.04 416.412 255.686C416.98 255.332 417.649 255.155 418.42 255.155C419.368 255.155 420.154 255.439 420.779 256.006C421.41 256.574 421.745 257.311 421.787 258.217H420.42C420.378 257.67 420.17 257.222 419.795 256.874C419.425 256.519 418.967 256.342 418.42 256.342C417.686 256.342 417.115 256.608 416.709 257.139C416.308 257.665 416.107 258.428 416.107 259.428V259.702C416.107 260.676 416.308 261.426 416.709 261.952C417.11 262.478 417.683 262.741 418.428 262.741ZM424.982 263.764H423.537V255.311H424.982V263.764ZM423.42 253.069C423.42 252.834 423.49 252.637 423.631 252.475C423.777 252.314 423.99 252.233 424.271 252.233C424.553 252.233 424.766 252.314 424.912 252.475C425.058 252.637 425.131 252.834 425.131 253.069C425.131 253.303 425.058 253.499 424.912 253.655C424.766 253.811 424.553 253.889 424.271 253.889C423.99 253.889 423.777 253.811 423.631 253.655C423.49 253.499 423.42 253.303 423.42 253.069ZM430.811 263.92C429.665 263.92 428.732 263.545 428.014 262.795C427.295 262.04 426.936 261.032 426.936 259.772V259.506C426.936 258.668 427.094 257.92 427.412 257.264C427.735 256.603 428.183 256.087 428.756 255.717C429.334 255.342 429.959 255.155 430.631 255.155C431.73 255.155 432.584 255.517 433.193 256.241C433.803 256.965 434.107 258.001 434.107 259.35V259.952H428.381C428.402 260.785 428.644 261.459 429.107 261.975C429.576 262.486 430.17 262.741 430.889 262.741C431.399 262.741 431.831 262.637 432.186 262.428C432.54 262.22 432.85 261.944 433.115 261.6L433.998 262.288C433.29 263.376 432.227 263.92 430.811 263.92ZM430.631 256.342C430.048 256.342 429.558 256.556 429.162 256.983C428.766 257.405 428.521 257.999 428.428 258.764H432.662V258.655C432.62 257.92 432.423 257.353 432.068 256.952C431.714 256.545 431.235 256.342 430.631 256.342ZM437.154 255.311L437.201 256.374C437.847 255.561 438.691 255.155 439.732 255.155C441.519 255.155 442.42 256.163 442.436 258.178V263.764H440.99V258.17C440.985 257.561 440.844 257.111 440.568 256.819C440.298 256.527 439.873 256.381 439.295 256.381C438.826 256.381 438.415 256.506 438.061 256.756C437.706 257.006 437.43 257.334 437.232 257.741V263.764H435.787V255.311H437.154ZM448.006 262.741C448.521 262.741 448.972 262.584 449.357 262.272C449.743 261.959 449.956 261.569 449.998 261.1H451.365C451.339 261.584 451.173 262.045 450.865 262.483C450.558 262.92 450.146 263.269 449.631 263.53C449.12 263.79 448.579 263.92 448.006 263.92C446.855 263.92 445.938 263.538 445.256 262.772C444.579 262.001 444.24 260.949 444.24 259.616V259.374C444.24 258.551 444.391 257.819 444.693 257.178C444.995 256.538 445.428 256.04 445.99 255.686C446.558 255.332 447.227 255.155 447.998 255.155C448.946 255.155 449.732 255.439 450.357 256.006C450.988 256.574 451.324 257.311 451.365 258.217H449.998C449.956 257.67 449.748 257.222 449.373 256.874C449.003 256.519 448.545 256.342 447.998 256.342C447.264 256.342 446.693 256.608 446.287 257.139C445.886 257.665 445.686 258.428 445.686 259.428V259.702C445.686 260.676 445.886 261.426 446.287 261.952C446.688 262.478 447.261 262.741 448.006 262.741ZM456.498 263.92C455.352 263.92 454.42 263.545 453.701 262.795C452.982 262.04 452.623 261.032 452.623 259.772V259.506C452.623 258.668 452.782 257.92 453.1 257.264C453.423 256.603 453.87 256.087 454.443 255.717C455.021 255.342 455.646 255.155 456.318 255.155C457.417 255.155 458.271 255.517 458.881 256.241C459.49 256.965 459.795 258.001 459.795 259.35V259.952H454.068C454.089 260.785 454.331 261.459 454.795 261.975C455.264 262.486 455.857 262.741 456.576 262.741C457.087 262.741 457.519 262.637 457.873 262.428C458.227 262.22 458.537 261.944 458.803 261.6L459.686 262.288C458.977 263.376 457.915 263.92 456.498 263.92ZM456.318 256.342C455.735 256.342 455.245 256.556 454.85 256.983C454.454 257.405 454.209 257.999 454.115 258.764H458.35V258.655C458.308 257.92 458.11 257.353 457.756 256.952C457.402 256.545 456.923 256.342 456.318 256.342Z" fill="#9F9F9F"/>
<g filter="url(#filter9_d)">
<rect x="19.2197" y="57.2642" width="171.737" height="37" rx="2" fill="white"/>
</g>
<path d="M38.1572 74.3267V64.2642H35.2822V74.3267H25.2197V77.2017H35.2822V87.2642H38.1572V77.2017H48.2197V74.3267H38.1572Z" fill="#7166F8"/>
<path d="M172.829 72.6329L172.829 82.8954C172.829 83.2032 173.154 83.3751 173.376 83.1845L179.326 78.0532C179.496 77.9064 179.496 77.6236 179.326 77.4751L173.376 72.3439C173.154 72.1532 172.829 72.3251 172.829 72.6329Z" fill="#7E75EF"/>
<path d="M70.7393 77.6548C70.5986 78.8579 70.1533 79.7876 69.4033 80.4438C68.6585 81.0949 67.6663 81.4204 66.4268 81.4204C65.083 81.4204 64.0049 80.9386 63.1924 79.9751C62.3851 79.0116 61.9814 77.7225 61.9814 76.1079V75.0142C61.9814 73.9569 62.1689 73.0272 62.5439 72.2251C62.9242 71.423 63.4606 70.8084 64.1533 70.3813C64.846 69.9491 65.6481 69.7329 66.5596 69.7329C67.7679 69.7329 68.7367 70.0715 69.4658 70.7485C70.195 71.4204 70.6195 72.3527 70.7393 73.5454H69.2314C69.1012 72.6392 68.8174 71.9829 68.3799 71.5767C67.9476 71.1704 67.3408 70.9673 66.5596 70.9673C65.6012 70.9673 64.8486 71.3215 64.3018 72.0298C63.7601 72.7381 63.4893 73.7459 63.4893 75.0532V76.1548C63.4893 77.3892 63.7471 78.3709 64.2627 79.1001C64.7783 79.8293 65.4997 80.1938 66.4268 80.1938C67.2601 80.1938 67.8981 80.0063 68.3408 79.6313C68.7887 79.2511 69.0856 78.5923 69.2314 77.6548H70.7393ZM76.6533 74.1079C76.4346 74.0715 76.1976 74.0532 75.9424 74.0532C74.9945 74.0532 74.3512 74.4569 74.0127 75.2642V81.2642H72.5674V72.811H73.9736L73.9971 73.7876C74.471 73.0324 75.1429 72.6548 76.0127 72.6548C76.2939 72.6548 76.5075 72.6912 76.6533 72.7642V74.1079ZM81.3408 81.4204C80.195 81.4204 79.2627 81.0454 78.5439 80.2954C77.8252 79.5402 77.4658 78.5324 77.4658 77.272V77.0063C77.4658 76.1678 77.6247 75.4204 77.9424 74.7642C78.2653 74.1027 78.7132 73.5871 79.2861 73.2173C79.8643 72.8423 80.4893 72.6548 81.1611 72.6548C82.2601 72.6548 83.1143 73.0168 83.7236 73.7407C84.333 74.4647 84.6377 75.5011 84.6377 76.8501V77.4517H78.9111C78.932 78.285 79.1742 78.9595 79.6377 79.4751C80.1064 79.9855 80.7002 80.2407 81.4189 80.2407C81.9294 80.2407 82.3617 80.1366 82.7158 79.9282C83.07 79.7199 83.3799 79.4438 83.6455 79.1001L84.5283 79.7876C83.82 80.8761 82.7575 81.4204 81.3408 81.4204ZM81.1611 73.8423C80.5778 73.8423 80.0882 74.0558 79.6924 74.4829C79.2965 74.9048 79.0518 75.4985 78.958 76.2642H83.1924V76.1548C83.1507 75.4204 82.9528 74.8527 82.5986 74.4517C82.2445 74.0454 81.7653 73.8423 81.1611 73.8423ZM91.5361 81.2642C91.4528 81.0975 91.3851 80.8006 91.333 80.3735C90.6611 81.0715 89.859 81.4204 88.9268 81.4204C88.0934 81.4204 87.4085 81.186 86.8721 80.7173C86.3408 80.2433 86.0752 79.6444 86.0752 78.9204C86.0752 78.0402 86.4085 77.3579 87.0752 76.8735C87.7471 76.384 88.6898 76.1392 89.9033 76.1392H91.3096V75.4751C91.3096 74.9699 91.1585 74.5688 90.8564 74.272C90.5544 73.9699 90.109 73.8188 89.5205 73.8188C89.0049 73.8188 88.5726 73.9491 88.2236 74.2095C87.8747 74.4699 87.7002 74.785 87.7002 75.1548H86.2471C86.2471 74.7329 86.3955 74.3267 86.6924 73.936C86.9945 73.5402 87.4007 73.2277 87.9111 72.9985C88.4268 72.7694 88.9919 72.6548 89.6064 72.6548C90.5804 72.6548 91.3434 72.8996 91.8955 73.3892C92.4476 73.8735 92.734 74.5428 92.7549 75.397V79.2876C92.7549 80.0636 92.8538 80.6808 93.0518 81.1392V81.2642H91.5361ZM89.1377 80.1626C89.5908 80.1626 90.0205 80.0454 90.4268 79.811C90.833 79.5767 91.1273 79.272 91.3096 78.897V77.1626H90.1768C88.4059 77.1626 87.5205 77.6808 87.5205 78.7173C87.5205 79.1704 87.6715 79.5246 87.9736 79.7798C88.2757 80.035 88.6637 80.1626 89.1377 80.1626ZM96.9814 70.7642V72.811H98.5596V73.9282H96.9814V79.1704C96.9814 79.509 97.0518 79.7642 97.1924 79.936C97.333 80.1027 97.5726 80.186 97.9111 80.186C98.0778 80.186 98.307 80.1548 98.5986 80.0923V81.2642C98.2184 81.3683 97.8486 81.4204 97.4893 81.4204C96.8434 81.4204 96.3564 81.2251 96.0283 80.8345C95.7002 80.4438 95.5361 79.8892 95.5361 79.1704V73.9282H93.9971V72.811H95.5361V70.7642H96.9814ZM103.763 81.4204C102.617 81.4204 101.685 81.0454 100.966 80.2954C100.247 79.5402 99.8877 78.5324 99.8877 77.272V77.0063C99.8877 76.1678 100.047 75.4204 100.364 74.7642C100.687 74.1027 101.135 73.5871 101.708 73.2173C102.286 72.8423 102.911 72.6548 103.583 72.6548C104.682 72.6548 105.536 73.0168 106.146 73.7407C106.755 74.4647 107.06 75.5011 107.06 76.8501V77.4517H101.333C101.354 78.285 101.596 78.9595 102.06 79.4751C102.528 79.9855 103.122 80.2407 103.841 80.2407C104.351 80.2407 104.784 80.1366 105.138 79.9282C105.492 79.7199 105.802 79.4438 106.067 79.1001L106.95 79.7876C106.242 80.8761 105.179 81.4204 103.763 81.4204ZM103.583 73.8423C103 73.8423 102.51 74.0558 102.114 74.4829C101.718 74.9048 101.474 75.4985 101.38 76.2642H105.614V76.1548C105.573 75.4204 105.375 74.8527 105.021 74.4517C104.666 74.0454 104.187 73.8423 103.583 73.8423ZM121.677 81.2642H120.169L114.442 72.4985V81.2642H112.935V69.8892H114.442L120.185 78.6938V69.8892H121.677V81.2642ZM123.731 76.9595C123.731 76.1313 123.893 75.3866 124.216 74.7251C124.544 74.0636 124.997 73.5532 125.575 73.1938C126.159 72.8345 126.823 72.6548 127.567 72.6548C128.718 72.6548 129.648 73.0532 130.356 73.8501C131.07 74.647 131.427 75.7069 131.427 77.0298V77.1313C131.427 77.9543 131.268 78.6938 130.95 79.3501C130.638 80.0011 130.187 80.509 129.599 80.8735C129.015 81.2381 128.343 81.4204 127.583 81.4204C126.437 81.4204 125.507 81.022 124.794 80.2251C124.086 79.4282 123.731 78.3735 123.731 77.061V76.9595ZM125.185 77.1313C125.185 78.0688 125.401 78.8215 125.833 79.3892C126.271 79.9569 126.854 80.2407 127.583 80.2407C128.317 80.2407 128.901 79.9543 129.333 79.3813C129.765 78.8032 129.981 77.9959 129.981 76.9595C129.981 76.0324 129.76 75.2824 129.317 74.7095C128.88 74.1313 128.297 73.8423 127.567 73.8423C126.854 73.8423 126.278 74.1261 125.841 74.6938C125.403 75.2616 125.185 76.0741 125.185 77.1313ZM132.888 76.9673C132.888 75.6704 133.195 74.6287 133.81 73.8423C134.424 73.0506 135.229 72.6548 136.224 72.6548C137.213 72.6548 137.997 72.9933 138.575 73.6704V69.2642H140.021V81.2642H138.692L138.622 80.3579C138.044 81.0662 137.239 81.4204 136.208 81.4204C135.229 81.4204 134.429 81.0194 133.81 80.2173C133.195 79.4152 132.888 78.3683 132.888 77.0767V76.9673ZM134.333 77.1313C134.333 78.0897 134.531 78.8397 134.927 79.3813C135.323 79.923 135.869 80.1938 136.567 80.1938C137.484 80.1938 138.153 79.7824 138.575 78.9595V75.0767C138.143 74.2798 137.479 73.8813 136.583 73.8813C135.875 73.8813 135.323 74.1548 134.927 74.7017C134.531 75.2485 134.333 76.0584 134.333 77.1313ZM145.778 81.4204C144.632 81.4204 143.7 81.0454 142.981 80.2954C142.263 79.5402 141.903 78.5324 141.903 77.272V77.0063C141.903 76.1678 142.062 75.4204 142.38 74.7642C142.703 74.1027 143.151 73.5871 143.724 73.2173C144.302 72.8423 144.927 72.6548 145.599 72.6548C146.698 72.6548 147.552 73.0168 148.161 73.7407C148.771 74.4647 149.075 75.5011 149.075 76.8501V77.4517H143.349C143.369 78.285 143.612 78.9595 144.075 79.4751C144.544 79.9855 145.138 80.2407 145.856 80.2407C146.367 80.2407 146.799 80.1366 147.153 79.9282C147.507 79.7199 147.817 79.4438 148.083 79.1001L148.966 79.7876C148.257 80.8761 147.195 81.4204 145.778 81.4204ZM145.599 73.8423C145.015 73.8423 144.526 74.0558 144.13 74.4829C143.734 74.9048 143.489 75.4985 143.396 76.2642H147.63V76.1548C147.588 75.4204 147.39 74.8527 147.036 74.4517C146.682 74.0454 146.203 73.8423 145.599 73.8423Z" fill="#7E75EF"/>
</g>
<rect x="0.5" y="0.76416" width="684" height="322" stroke="#C0C0C0"/>
<defs>
<filter id="filter0_d" x="-27" y="-33.2153" width="262" height="387.479" filterUnits="userSpaceOnUse" color-interpolation-filters="sRGB">
<feFlood flood-opacity="0" result="BackgroundImageFix"/>
<feColorMatrix in="SourceAlpha" type="matrix" values="0 0 0 0 0 0 0 0 0 0 0 0 0 0 0 0 0 0 127 0" result="hardAlpha"/>
<feOffset dx="4"/>
<feGaussianBlur stdDeviation="15.5"/>
<feColorMatrix type="matrix" values="0 0 0 0 0.466963 0 0 0 0 0.444931 0 0 0 0 0.716667 0 0 0 0.22 0"/>
<feBlend mode="normal" in2="BackgroundImageFix" result="effect1_dropShadow"/>
<feBlend mode="normal" in="SourceGraphic" in2="effect1_dropShadow" result="shape"/>
</filter>
<filter id="filter1_d" x="11.2197" y="2.26416" width="187.737" height="53" filterUnits="userSpaceOnUse" color-interpolation-filters="sRGB">
<feFlood flood-opacity="0" result="BackgroundImageFix"/>
<feColorMatrix in="SourceAlpha" type="matrix" values="0 0 0 0 0 0 0 0 0 0 0 0 0 0 0 0 0 0 127 0" result="hardAlpha"/>
<feMorphology radius="2" operator="dilate" in="SourceAlpha" result="effect1_dropShadow"/>
<feOffset/>
<feGaussianBlur stdDeviation="3"/>
<feColorMatrix type="matrix" values="0 0 0 0 0.534836 0 0 0 0 0.509601 0 0 0 0 0.820833 0 0 0 0.22 0"/>
<feBlend mode="normal" in2="BackgroundImageFix" result="effect1_dropShadow"/>
<feBlend mode="normal" in="SourceGraphic" in2="effect1_dropShadow" result="shape"/>
</filter>
<filter id="filter2_d" x="11.2197" y="93.2642" width="187.737" height="53" filterUnits="userSpaceOnUse" color-interpolation-filters="sRGB">
<feFlood flood-opacity="0" result="BackgroundImageFix"/>
<feColorMatrix in="SourceAlpha" type="matrix" values="0 0 0 0 0 0 0 0 0 0 0 0 0 0 0 0 0 0 127 0" result="hardAlpha"/>
<feMorphology radius="2" operator="dilate" in="SourceAlpha" result="effect1_dropShadow"/>
<feOffset/>
<feGaussianBlur stdDeviation="3"/>
<feColorMatrix type="matrix" values="0 0 0 0 0.534836 0 0 0 0 0.509601 0 0 0 0 0.820833 0 0 0 0.22 0"/>
<feBlend mode="normal" in2="BackgroundImageFix" result="effect1_dropShadow"/>
<feBlend mode="normal" in="SourceGraphic" in2="effect1_dropShadow" result="shape"/>
</filter>
<filter id="filter3_d" x="11.2197" y="135.264" width="187.737" height="53" filterUnits="userSpaceOnUse" color-interpolation-filters="sRGB">
<feFlood flood-opacity="0" result="BackgroundImageFix"/>
<feColorMatrix in="SourceAlpha" type="matrix" values="0 0 0 0 0 0 0 0 0 0 0 0 0 0 0 0 0 0 127 0" result="hardAlpha"/>
<feMorphology radius="2" operator="dilate" in="SourceAlpha" result="effect1_dropShadow"/>
<feOffset/>
<feGaussianBlur stdDeviation="3"/>
<feColorMatrix type="matrix" values="0 0 0 0 0.534836 0 0 0 0 0.509601 0 0 0 0 0.820833 0 0 0 0.22 0"/>
<feBlend mode="normal" in2="BackgroundImageFix" result="effect1_dropShadow"/>
<feBlend mode="normal" in="SourceGraphic" in2="effect1_dropShadow" result="shape"/>
</filter>
<filter id="filter4_d" x="11.2197" y="181.264" width="187.737" height="53" filterUnits="userSpaceOnUse" color-interpolation-filters="sRGB">
<feFlood flood-opacity="0" result="BackgroundImageFix"/>
<feColorMatrix in="SourceAlpha" type="matrix" values="0 0 0 0 0 0 0 0 0 0 0 0 0 0 0 0 0 0 127 0" result="hardAlpha"/>
<feMorphology radius="2" operator="dilate" in="SourceAlpha" result="effect1_dropShadow"/>
<feOffset/>
<feGaussianBlur stdDeviation="3"/>
<feColorMatrix type="matrix" values="0 0 0 0 0.534836 0 0 0 0 0.509601 0 0 0 0 0.820833 0 0 0 0.22 0"/>
<feBlend mode="normal" in2="BackgroundImageFix" result="effect1_dropShadow"/>
<feBlend mode="normal" in="SourceGraphic" in2="effect1_dropShadow" result="shape"/>
</filter>
<filter id="filter5_d" x="11.2197" y="227.264" width="187.737" height="53" filterUnits="userSpaceOnUse" color-interpolation-filters="sRGB">
<feFlood flood-opacity="0" result="BackgroundImageFix"/>
<feColorMatrix in="SourceAlpha" type="matrix" values="0 0 0 0 0 0 0 0 0 0 0 0 0 0 0 0 0 0 127 0" result="hardAlpha"/>
<feMorphology radius="2" operator="dilate" in="SourceAlpha" result="effect1_dropShadow"/>
<feOffset/>
<feGaussianBlur stdDeviation="3"/>
<feColorMatrix type="matrix" values="0 0 0 0 0.534836 0 0 0 0 0.509601 0 0 0 0 0.820833 0 0 0 0.22 0"/>
<feBlend mode="normal" in2="BackgroundImageFix" result="effect1_dropShadow"/>
<feBlend mode="normal" in="SourceGraphic" in2="effect1_dropShadow" result="shape"/>
</filter>
<filter id="filter6_d" x="11.2197" y="273.264" width="187.737" height="54" filterUnits="userSpaceOnUse" color-interpolation-filters="sRGB">
<feFlood flood-opacity="0" result="BackgroundImageFix"/>
<feColorMatrix in="SourceAlpha" type="matrix" values="0 0 0 0 0 0 0 0 0 0 0 0 0 0 0 0 0 0 127 0" result="hardAlpha"/>
<feMorphology radius="2" operator="dilate" in="SourceAlpha" result="effect1_dropShadow"/>
<feOffset/>
<feGaussianBlur stdDeviation="3"/>
<feColorMatrix type="matrix" values="0 0 0 0 0.534836 0 0 0 0 0.509601 0 0 0 0 0.820833 0 0 0 0.22 0"/>
<feBlend mode="normal" in2="BackgroundImageFix" result="effect1_dropShadow"/>
<feBlend mode="normal" in="SourceGraphic" in2="effect1_dropShadow" result="shape"/>
</filter>
<filter id="filter7_d" x="166.5" y="48.7642" width="173" height="184" filterUnits="userSpaceOnUse" color-interpolation-filters="sRGB">
<feFlood flood-opacity="0" result="BackgroundImageFix"/>
<feColorMatrix in="SourceAlpha" type="matrix" values="0 0 0 0 0 0 0 0 0 0 0 0 0 0 0 0 0 0 127 0" result="hardAlpha"/>
<feOffset dy="4"/>
<feGaussianBlur stdDeviation="16.5"/>
<feColorMatrix type="matrix" values="0 0 0 0 0 0 0 0 0 0 0 0 0 0 0 0 0 0 0.25 0"/>
<feBlend mode="normal" in2="BackgroundImageFix" result="effect1_dropShadow"/>
<feBlend mode="normal" in="SourceGraphic" in2="effect1_dropShadow" result="shape"/>
</filter>
<filter id="filter8_d" x="279.5" y="72.7642" width="228" height="250" filterUnits="userSpaceOnUse" color-interpolation-filters="sRGB">
<feFlood flood-opacity="0" result="BackgroundImageFix"/>
<feColorMatrix in="SourceAlpha" type="matrix" values="0 0 0 0 0 0 0 0 0 0 0 0 0 0 0 0 0 0 127 0" result="hardAlpha"/>
<feOffset dy="4"/>
<feGaussianBlur stdDeviation="16.5"/>
<feColorMatrix type="matrix" values="0 0 0 0 0 0 0 0 0 0 0 0 0 0 0 0 0 0 0.25 0"/>
<feBlend mode="normal" in2="BackgroundImageFix" result="effect1_dropShadow"/>
<feBlend mode="normal" in="SourceGraphic" in2="effect1_dropShadow" result="shape"/>
</filter>
<filter id="filter9_d" x="11.2197" y="49.2642" width="187.737" height="53" filterUnits="userSpaceOnUse" color-interpolation-filters="sRGB">
<feFlood flood-opacity="0" result="BackgroundImageFix"/>
<feColorMatrix in="SourceAlpha" type="matrix" values="0 0 0 0 0 0 0 0 0 0 0 0 0 0 0 0 0 0 127 0" result="hardAlpha"/>
<feMorphology radius="2" operator="dilate" in="SourceAlpha" result="effect1_dropShadow"/>
<feOffset/>
<feGaussianBlur stdDeviation="3"/>
<feColorMatrix type="matrix" values="0 0 0 0 0.534836 0 0 0 0 0.509601 0 0 0 0 0.820833 0 0 0 0.22 0"/>
<feBlend mode="normal" in2="BackgroundImageFix" result="effect1_dropShadow"/>
<feBlend mode="normal" in="SourceGraphic" in2="effect1_dropShadow" result="shape"/>
</filter>
<clipPath id="clip0">
</clipPath>
</defs>
</svg>
