<svg width="14" height="13" viewBox="0 0 14 13" fill="none" xmlns="http://www.w3.org/2000/svg">
<path d="M5.88997 11C7.07329 10.9997 8.22251 10.6036 9.15464 9.87465L12.0853 12.8053L13.028 11.8626L10.0973 8.93198C10.8266 7.99976 11.223 6.85027 11.2233 5.66665C11.2233 2.72598 8.83064 0.333313 5.88997 0.333313C2.94931 0.333313 0.556641 2.72598 0.556641 5.66665C0.556641 8.60731 2.94931 11 5.88997 11ZM5.88997 1.66665C8.09597 1.66665 9.88997 3.46065 9.88997 5.66665C9.88997 7.87265 8.09597 9.66665 5.88997 9.66665C3.68397 9.66665 1.88997 7.87265 1.88997 5.66665C1.88997 3.46065 3.68397 1.66665 5.88997 1.66665Z" fill="#CFCFCF"/>
</svg>
