<svg width="25" height="25" viewBox="0 0 32 30" fill="none" xmlns="http://www.w3.org/2000/svg">
    <path d="M15.5 3.94769C13.2543 3.94769 11.1553 4.38403 9.20312 5.25671C7.25095 6.1294 5.69875 7.31256 4.54652 8.80619C3.39429 10.2998 2.81818 11.9025 2.81818 13.6144C2.81818 14.9905 3.20715 16.3163 3.98509 17.5918C4.76302 18.8672 5.85653 19.9749 7.26562 20.9147L9.40128 22.3244L8.63068 24.439C9.12973 24.1034 9.58475 23.7761 9.99574 23.4572L10.9645 22.6769L12.1314 22.9286C13.2763 23.1635 14.3991 23.281 15.5 23.281C17.7457 23.281 19.8447 22.8447 21.7969 21.972C23.7491 21.0993 25.3013 19.9161 26.4535 18.4225C27.6057 16.9289 28.1818 15.3262 28.1818 13.6144C28.1818 11.9025 27.6057 10.2998 26.4535 8.80619C25.3013 7.31256 23.7491 6.1294 21.7969 5.25671C19.8447 4.38403 17.7457 3.94769 15.5 3.94769ZM15.5 0.725464C18.3035 0.725464 20.8978 1.30026 23.283 2.44986C25.6682 3.59945 27.5507 5.16441 28.9304 7.14473C30.3101 9.12506 31 11.2816 31 13.6144C31 15.9471 30.3101 18.1036 28.9304 20.084C27.5507 22.0643 25.6682 23.6293 23.283 24.7789C20.8978 25.9284 18.3035 26.5032 15.5 26.5032C14.2377 26.5032 12.946 26.369 11.625 26.1005C9.80492 27.5773 7.76468 28.6514 5.50426 29.3227C4.97585 29.4737 4.3447 29.608 3.6108 29.7255H3.54474C3.38329 29.7255 3.23284 29.6583 3.09339 29.5241C2.95395 29.3898 2.86955 29.2136 2.8402 28.9954C2.82552 28.9451 2.81818 28.8905 2.81818 28.8318C2.81818 28.7731 2.82185 28.7185 2.82919 28.6682C2.83653 28.6178 2.85121 28.5675 2.87322 28.5171L2.92827 28.3913L3.00533 28.2528L3.09339 28.1269L3.19247 28.0011L3.28054 27.8878C3.35393 27.7871 3.52273 27.5773 3.78693 27.2585C4.05114 26.9396 4.24195 26.692 4.35938 26.5158C4.4768 26.3396 4.64193 26.0963 4.85476 25.7858C5.06759 25.4753 5.25107 25.1523 5.40518 24.8166C5.5593 24.481 5.70975 24.1117 5.85653 23.709C4.03646 22.5006 2.60535 21.0154 1.56321 19.2532C0.52107 17.4911 0 15.6115 0 13.6144C0 11.2816 0.689867 9.12506 2.0696 7.14473C3.44934 5.16441 5.33179 3.59945 7.71697 2.44986C10.1022 1.30026 12.6965 0.725464 15.5 0.725464Z" fill="#7166F8"/>
</svg>
