<svg width="20" height="15" viewBox="0 0 20 15" fill="none" xmlns="http://www.w3.org/2000/svg">
<path d="M9.72765 2.49001C8.35928 2.49001 7.08034 2.70101 5.89084 3.123C4.70134 3.54499 3.75556 4.11712 3.05348 4.83937C2.35141 5.56163 2.00037 6.33663 2.00037 7.16439C2.00037 7.82984 2.23738 8.47094 2.71139 9.0877C3.1854 9.70446 3.8517 10.2401 4.71029 10.6945L6.01158 11.3762L5.54204 12.3987C5.84612 12.2364 6.12338 12.0782 6.3738 11.924L6.96407 11.5466L7.67509 11.6683C8.37269 11.782 9.05688 11.8388 9.72765 11.8388C11.096 11.8388 12.375 11.6278 13.5645 11.2058C14.754 10.7838 15.6997 10.2117 16.4018 9.4894C17.1039 8.76715 17.4549 7.99214 17.4549 7.16439C17.4549 6.33663 17.1039 5.56163 16.4018 4.83937C15.6997 4.11712 14.754 3.54499 13.5645 3.123C12.375 2.70101 11.096 2.49001 9.72765 2.49001ZM9.72765 0.931885C11.4359 0.931885 13.0167 1.20983 14.47 1.76573C15.9233 2.32162 17.0703 3.07837 17.911 4.03596C18.7517 4.99356 19.1721 6.03637 19.1721 7.16439C19.1721 8.29241 18.7517 9.33521 17.911 10.2928C17.0703 11.2504 15.9233 12.0072 14.47 12.5631C13.0167 13.1189 11.4359 13.3969 9.72765 13.3969C8.9585 13.3969 8.17146 13.332 7.36654 13.2021C6.25753 13.9163 5.01437 14.4356 3.63705 14.7603C3.31508 14.8333 2.93051 14.8982 2.48333 14.955H2.44308C2.3447 14.955 2.25303 14.9226 2.16807 14.8576C2.0831 14.7927 2.03168 14.7075 2.01379 14.602C2.00485 14.5777 2.00037 14.5513 2.00037 14.5229C2.00037 14.4945 2.00261 14.4681 2.00708 14.4438C2.01155 14.4194 2.0205 14.3951 2.03391 14.3707L2.06745 14.3099L2.11441 14.2429L2.16807 14.182L2.22844 14.1212L2.2821 14.0664C2.32682 14.0177 2.42967 13.9163 2.59065 13.7621C2.75164 13.6079 2.8679 13.4882 2.93945 13.403C3.011 13.3178 3.11162 13.2001 3.2413 13.05C3.37098 12.8998 3.48278 12.7436 3.57668 12.5813C3.67059 12.419 3.76226 12.2405 3.8517 12.0457C2.74269 11.4614 1.87069 10.7432 1.2357 9.89111C0.600701 9.03901 0.283203 8.1301 0.283203 7.16439C0.283203 6.03637 0.703552 4.99356 1.54425 4.03596C2.38495 3.07837 3.53197 2.32162 4.9853 1.76573C6.43864 1.20983 8.01942 0.931885 9.72765 0.931885Z" fill="#7166F8"/>
</svg>
