<svg width="12" height="12" viewBox="0 0 12 12" fill="none" xmlns="http://www.w3.org/2000/svg">
<path d="M10.8125 2.33655H9.0625V1.2428C9.0625 0.760181 8.67012 0.367798 8.1875 0.367798H3.8125C3.32988 0.367798 2.9375 0.760181 2.9375 1.2428V2.33655H1.1875C0.945508 2.33655 0.75 2.53206 0.75 2.77405V3.21155C0.75 3.2717 0.799219 3.32092 0.859375 3.32092H1.68516L2.02285 10.4713C2.04473 10.9375 2.43027 11.3053 2.89648 11.3053H9.10352C9.57109 11.3053 9.95527 10.9389 9.97715 10.4713L10.3148 3.32092H11.1406C11.2008 3.32092 11.25 3.2717 11.25 3.21155V2.77405C11.25 2.53206 11.0545 2.33655 10.8125 2.33655ZM8.07812 2.33655H3.92188V1.35217H8.07812V2.33655Z" fill="#727272"/>
</svg>
