<svg xmlns="http://www.w3.org/2000/svg" width="13" height="14" viewBox="0 0 13 14" fill="none">
    <path d="M11.5055 4.38491C11.882 4.00833 12.0936 3.49759 12.0936 2.96503C12.0936 2.43248 11.882 1.92174 11.5055 1.54516C11.1289 1.16859 10.6181 0.957031 10.0856 0.957031C9.55303 0.957031 9.04229 1.16859 8.66571 1.54516L7.96143 2.24995L10.8007 5.0892L11.5055 4.38491Z" fill="#727272"/>
    <path d="M10.0914 5.79835L4.09018 11.8006C3.76848 12.1223 3.36541 12.3504 2.92406 12.4607L0.623953 13.036C0.539829 13.0571 0.451679 13.056 0.368098 13.0329C0.284516 13.0097 0.208352 12.9653 0.147029 12.904C0.085706 12.8427 0.0413161 12.7665 0.0181851 12.683C-0.00494586 12.5994 -0.00602882 12.5112 0.015042 12.4271L0.59032 10.127C0.700615 9.68565 0.928785 9.28258 1.25043 8.96087L7.2517 2.95911L10.0914 5.79885V5.79835Z" fill="#727272"/>
</svg>
