<svg width="12" height="13" viewBox="0 0 12 13" fill="none" xmlns="http://www.w3.org/2000/svg">
<path d="M2.2251 10.0156C2.25439 10.0156 2.28369 10.0127 2.31299 10.0083L4.77686 9.57617C4.80615 9.57031 4.83398 9.55713 4.85449 9.53516L11.064 3.32568C11.0775 3.31213 11.0883 3.29604 11.0957 3.27831C11.103 3.26059 11.1068 3.2416 11.1068 3.22241C11.1068 3.20323 11.103 3.18423 11.0957 3.16651C11.0883 3.14879 11.0775 3.13269 11.064 3.11914L8.62939 0.683105C8.60156 0.655273 8.56494 0.640625 8.52539 0.640625C8.48584 0.640625 8.44922 0.655273 8.42139 0.683105L2.21191 6.89258C2.18994 6.91455 2.17676 6.94092 2.1709 6.97021L1.73877 9.43408C1.72452 9.51256 1.72961 9.59332 1.7536 9.66938C1.7776 9.74544 1.81977 9.81451 1.87646 9.87061C1.97314 9.96436 2.09473 10.0156 2.2251 10.0156ZM3.2124 7.46094L8.52539 2.14941L9.59912 3.22314L4.28613 8.53467L2.98389 8.76465L3.2124 7.46094ZM11.3408 11.2461H0.55957C0.300293 11.2461 0.0908203 11.4556 0.0908203 11.7148V12.2422C0.0908203 12.3066 0.143555 12.3594 0.208008 12.3594H11.6924C11.7568 12.3594 11.8096 12.3066 11.8096 12.2422V11.7148C11.8096 11.4556 11.6001 11.2461 11.3408 11.2461Z" fill="#424242"/>
</svg>
