<svg width="13" height="13" viewBox="0 0 13 13" fill="none" xmlns="http://www.w3.org/2000/svg">
<path d="M11.5546 3.19264L9.49962 1.13764C9.23141 0.885709 8.87996 0.741157 8.51211 0.731477C8.14427 0.721797 7.7857 0.847665 7.50462 1.08514L0.754617 7.83514C0.512191 8.07961 0.361245 8.40004 0.327117 8.74264L0.00461706 11.8701C-0.00548622 11.98 0.00876781 12.0907 0.046363 12.1944C0.0839581 12.2981 0.143969 12.3923 0.222117 12.4701C0.292197 12.5396 0.375309 12.5946 0.466687 12.632C0.558065 12.6693 0.655912 12.6882 0.754617 12.6876H0.822117L3.94962 12.4026C4.29221 12.3685 4.61264 12.2176 4.85712 11.9751L11.6071 5.22514C11.8691 4.94836 12.0107 4.57902 12.0009 4.19804C11.991 3.81706 11.8305 3.45552 11.5546 3.19264ZM9.00462 5.69764L6.99462 3.68764L8.45712 2.18764L10.5046 4.23514L9.00462 5.69764Z" fill="#757575"/>
</svg>
