<svg width="13" height="13" viewBox="0 0 15 15" fill="none" xmlns="http://www.w3.org/2000/svg">
<path d="M13.3203 3.96804C13.7562 3.53213 14.0011 2.9409 14.0011 2.32442C14.0011 1.70795 13.7562 1.11672 13.3203 0.680808C12.8844 0.244894 12.2931 0 11.6767 0C11.0602 0 10.469 0.244894 10.033 0.680808L9.21777 1.49666L12.5044 4.78331L13.3203 3.96804Z" fill="#727272"/>
<path d="M11.6817 5.6044L4.73471 12.5525C4.36232 12.9248 3.89573 13.189 3.38484 13.3166L0.722276 13.9826C0.624895 14.007 0.522855 14.0057 0.426102 13.9789C0.32935 13.9522 0.241184 13.9008 0.170198 13.8298C0.0992116 13.7588 0.0478266 13.6706 0.0210507 13.5739C-0.00572523 13.4771 -0.00697885 13.3751 0.0174123 13.2777L0.683343 10.6152C0.811018 10.1043 1.07514 9.63767 1.44748 9.26528L8.39442 2.31775L11.6817 5.60498V5.6044Z" fill="#727272"/>
</svg>
