<svg xmlns="http://www.w3.org/2000/svg" width="13" height="14" viewBox="0 0 13 14" fill="none">
    <path d="M11.9409 3.96804C12.3316 3.53213 12.5512 2.9409 12.5512 2.32442C12.5512 1.70795 12.3316 1.11672 11.9409 0.680808C11.5501 0.244894 11.0201 0 10.4674 0C9.9148 0 9.3848 0.244894 8.99403 0.680808L8.26318 1.49666L11.2095 4.78331L11.9409 3.96804Z" fill="#727272"/>
    <path d="M10.472 5.60428L4.24441 12.5524C3.91058 12.9247 3.49231 13.1889 3.03432 13.3165L0.647481 13.9825C0.560184 14.0069 0.468711 14.0056 0.381977 13.9788C0.295244 13.9521 0.216208 13.9007 0.152573 13.8297C0.0889378 13.7587 0.042874 13.6705 0.0188708 13.5738C-0.00513235 13.477 -0.00625616 13.375 0.0156092 13.2776L0.61258 10.615C0.727033 10.1041 0.963807 9.63756 1.29758 9.26516L7.52514 2.31763L10.472 5.60486V5.60428Z" fill="#727272"/>
</svg>
