<svg xmlns="http://www.w3.org/2000/svg" xmlns:xlink="http://www.w3.org/1999/xlink" version="1.1" x="0px" y="0px" viewBox="0 0 24 30" enable-background="new 0 0 24 24" xml:space="preserve"><g><path d="M4,7c0-1.2,2.8-3,7-3c4.2,0,7,1.8,7,3c0,0.8-1.2,1.8-3.3,2.5l2.8,0.9C19.1,9.5,20,8.3,20,7c0-2.8-4-5-9-5C6,2,2,4.2,2,7   c0,2.3,2.7,4.2,6.5,4.8L7.8,9.6C5.4,9,4,7.8,4,7z"/><polygon points="22,14 10,10 14,22 15.9,20.1 17.8,22 22,17.8 20.1,15.9  "/></g><text x="0" y="39" fill="#000000" font-size="5px" font-weight="bold" font-family="'Helvetica Neue', Helvetica, Arial-Unicode, Arial, Sans-serif">Created by Creative Stall</text><text x="0" y="44" fill="#000000" font-size="5px" font-weight="bold" font-family="'Helvetica Neue', Helvetica, Arial-Unicode, Arial, Sans-serif">from the Noun Project</text></svg>