<svg xmlns="http://www.w3.org/2000/svg" width="13" height="14" viewBox="0 0 13 14" fill="none">
    <path d="M3.75915 0H0.473594C0.211637 0 0 0.236085 0 0.528302V4.22642C0 4.3717 0.106559 4.49057 0.236797 4.49057H0.947187C1.07743 4.49057 1.18398 4.3717 1.18398 4.22642V1.32075H3.75915C3.88939 1.32075 3.99595 1.20189 3.99595 1.0566V0.264151C3.99595 0.118868 3.88939 0 3.75915 0ZM12.3134 9.50943H11.603C11.4728 9.50943 11.3662 9.6283 11.3662 9.77359V12.6792H8.79108C8.66084 12.6792 8.55429 12.7981 8.55429 12.9434V13.7358C8.55429 13.8811 8.66084 14 8.79108 14H12.0766C12.3386 14 12.5502 13.7639 12.5502 13.4717V9.77359C12.5502 9.6283 12.4437 9.50943 12.3134 9.50943ZM3.75915 12.6792H1.18398V9.77359C1.18398 9.6283 1.07743 9.50943 0.947187 9.50943H0.236797C0.106559 9.50943 0 9.6283 0 9.77359V13.4717C0 13.7639 0.211637 14 0.473594 14H3.75915C3.88939 14 3.99595 13.8811 3.99595 13.7358V12.9434C3.99595 12.7981 3.88939 12.6792 3.75915 12.6792ZM12.0766 0H8.79108C8.66084 0 8.55429 0.118868 8.55429 0.264151V1.0566C8.55429 1.20189 8.66084 1.32075 8.79108 1.32075H11.3662V4.22642C11.3662 4.3717 11.4728 4.49057 11.603 4.49057H12.3134C12.4437 4.49057 12.5502 4.3717 12.5502 4.22642V0.528302C12.5502 0.236085 12.3386 0 12.0766 0Z" fill="#727272"/>
</svg>
