<svg height="496" viewBox="0 0 372.448 372" width="496" xmlns="http://www.w3.org/2000/svg"><path d="M228.656 170.805a7.997 7.997 0 0011.313 0l77.578-77.578 1.312 37.011a8.007 8.007 0 002.547 5.578 7.986 7.986 0 005.746 2.133l37.59-1.394c4.414-.16 7.86-3.871 7.7-8.285l-4.235-116.114a7.995 7.995 0 00-7.7-7.699L244.399.227a8.029 8.029 0 00-8.285 7.691l-1.445 37.539a8.002 8.002 0 007.715 8.3l36.972 1.298-77.57 77.57a8.002 8.002 0 000 11.316zm0 0M170.672 228.79l-26.867-26.872a8.002 8.002 0 00-11.317 0L54.91 279.5l-1.32-37.023a7.998 7.998 0 00-8.29-7.711l-37.593 1.39c-4.414.164-7.863 3.871-7.703 8.285L4.23 360.555a8.008 8.008 0 007.704 7.703l116.105 4.222h.3a7.995 7.995 0 007.99-7.687l1.452-37.531a8.014 8.014 0 00-2.136-5.754 7.992 7.992 0 00-5.583-2.547l-36.96-1.29 77.57-77.57c3.125-3.12 3.125-8.187 0-11.312zm0 0"/></svg>