<svg xmlns="http://www.w3.org/2000/svg" viewBox="0 0 512 512" width="512" height="512"><path d="M256 0c-76.888 0-139.44 62.552-139.44 139.439 0 47.891 58.183 153.137 106.992 232.994 6.966 11.398 19.096 18.201 32.448 18.201 13.353 0 25.482-6.804 32.448-18.201 48.81-79.857 106.992-185.103 106.992-232.994C395.44 62.552 332.888 0 256 0zm0 185.911c-30.904 0-56.047-25.142-56.047-56.046 0-30.903 25.143-56.045 56.047-56.045s56.047 25.142 56.047 56.045c0 30.905-25.143 56.046-56.047 56.046z" fill="#fe5857"/><path d="M256 0h-.004v73.82H256c30.904 0 56.047 25.142 56.047 56.045 0 30.904-25.143 56.046-56.047 56.046h-.004v204.723H256c13.353 0 25.482-6.804 32.448-18.201 48.81-79.857 106.992-185.103 106.992-232.994C395.44 62.552 332.888 0 256 0z" fill="#db0253"/></svg>