<svg xmlns="http://www.w3.org/2000/svg" width="13" height="13" viewBox="0 0 13 13" fill="none">
    <path d="M5.02932 6.85843L1.804 7.25903C1.69149 7.27267 1.64546 7.40905 1.72388 7.48917L2.65636 8.42165L0.0396175 11.0384C0.0142374 11.064 0 11.0986 0 11.1347C0 11.1708 0.0142374 11.2054 0.0396175 11.231L0.808445 11.9999C0.861292 12.0527 0.948232 12.0527 1.00108 11.9999L3.61952 9.38141L4.552 10.3139C4.56999 10.3319 4.59269 10.3444 4.61748 10.3501C4.64228 10.3558 4.66817 10.3543 4.69219 10.346C4.71621 10.3376 4.73739 10.3227 4.7533 10.3028C4.76921 10.283 4.77921 10.259 4.78214 10.2338L5.18104 7.01015C5.18387 6.98956 5.18189 6.9686 5.17526 6.9489C5.16863 6.92921 5.15754 6.91132 5.14285 6.89662C5.12815 6.88193 5.11026 6.87084 5.09057 6.86421C5.07087 6.85758 5.04991 6.8556 5.02932 6.85843Z" fill="#727272"/>
    <path d="M11.3173 0C11.3533 0 11.388 0.0142369 11.4136 0.0396171L12.1841 0.806739C12.237 0.859586 12.237 0.946526 12.1841 0.999372L9.56568 3.61782L10.4982 4.5503C10.5766 4.63042 10.5306 4.7668 10.418 4.78044L7.19271 5.18104C7.10407 5.19127 7.03077 5.11797 7.04099 5.02932L7.4416 1.8057C7.44454 1.78044 7.45453 1.75651 7.47044 1.73666C7.48635 1.71681 7.50753 1.70185 7.53155 1.69349C7.55557 1.68512 7.58147 1.6837 7.60626 1.68938C7.63106 1.69505 7.65375 1.7076 7.67174 1.72558L8.60422 2.65806L11.221 0.0396171C11.2466 0.0142369 11.2812 0 11.3173 0Z" fill="#727272"/>
</svg>
