<svg xmlns="http://www.w3.org/2000/svg" width="20" height="26" viewBox="0 0 22 28" fill="none">
<path d="M19.1739 22H20.913V22.8H1V22H2.73913H3.73913V21V11.2C3.73913 7.74552 6.05113 4.85604 9.15425 4.04771L9.90217 3.85288V3.08V2.1C9.90217 1.46945 10.3927 1 10.9565 1C11.5204 1 12.0109 1.46945 12.0109 2.1V3.08V3.85388L12.76 4.04802C13.2724 4.18082 13.7614 4.37248 14.2274 4.61683C13.2256 6.14502 12.6883 7.94968 12.6957 9.80209C12.6965 13.6253 14.9416 16.923 18.1739 18.3946V21V22H19.1739ZM12.4 26.2C12.083 26.6853 11.5452 27 10.9565 27C10.3678 27 9.83009 26.6853 9.51309 26.2H12.4Z" stroke="#7166F8" stroke-width="2"/>
</svg>
