<svg xmlns="http://www.w3.org/2000/svg" viewBox="0 0 512 512"><path d="M256 0C114.844 0 0 114.844 0 256s114.844 256 256 256 256-114.844 256-256S397.156 0 256 0zM102.667 264.135c-1.84 1.506-4.1 2.531-6.667 2.531a10.66 10.66 0 01-10.667-10.667c0-12.348 1.682-24.526 4.292-36.483 0 0 2.1-9.458 2.188-9.703 20.47-72.668 87.898-124.48 164.188-124.48 61.859 0 119.253 34.085 149.172 87.702 2.954 5.296.534 12.059-4.944 14.658l-19.316 9.168c-5.141 2.44-11.065.277-13.91-4.652C344.315 152.897 301.79 128 256 128c-44.453 0-84.882 23.462-107.936 59.448l15.311 5.104c3.667 1.219 6.385 4.333 7.104 8.135s-.677 7.698-3.646 10.177l-64 53.333c-.053.045-.113-.09-.166-.062zm320.817 28.348s-2.1 9.458-2.188 9.703c-20.47 72.668-87.898 124.48-164.188 124.48-61.859 0-119.253-34.085-149.172-87.702-2.954-5.296-.534-12.059 4.944-14.658l19.316-9.168c5.141-2.44 11.065-.277 13.91 4.652C168.794 359.103 211.319 384 257.109 384c44.453 0 84.882-23.462 107.936-59.448l-15.311-5.104c-3.667-1.219-6.385-4.333-7.104-8.135s.677-7.698 3.646-10.177l64-53.333c.053-.044.113.091.167.063 1.84-1.506 4.1-2.531 6.667-2.531a10.66 10.66 0 0110.667 10.667c-.001 12.346-1.683 24.524-4.293 36.481z"/></svg>