<svg width="29" height="29" viewBox="0 0 29 29" fill="none" xmlns="http://www.w3.org/2000/svg">
<path d="M26.0068 4.64066L23.3798 2.01367L22.7668 1.75098H7.84558L6.96992 2.62664V7.00494H2.62664L1.75098 7.8806V25.3938L2.62664 26.2695H20.1399L21.0155 25.3938V21.0155H25.3938L26.2695 20.1399V5.25362L26.0068 4.64066ZM19.2642 24.5182H3.5023V8.75626H5.25362V14.1328H15.7616V8.75626H17.1451L19.2642 10.8754V24.5182ZM10.5076 12.2589V8.75626H14.0102V12.2589H10.5076ZM24.5182 19.2642H21.0155V10.5076L20.7528 9.89462L18.1258 7.26764L17.5129 7.00494H8.75626V3.5023H22.4341L24.5532 5.6214L24.5182 19.2642Z" fill="#929292"/>
</svg>
