<svg xmlns="http://www.w3.org/2000/svg" width="16" height="14" viewBox="0 0 16 14"><defs><style>.a{fill:#717ea0;}</style></defs><g transform="translate(2 -30.996)"><g transform="translate(-2 30.996)"><path class="a" d="M15.973,39.942A5.672,5.672,0,0,0,10.25,35H6V32.5a.5.5,0,0,0-.812-.391l-5,4a.5.5,0,0,0,0,.782l5,4A.5.5,0,0,0,6,40.5V38h4.356a2.6,2.6,0,0,1,2.631,2.241A2.5,2.5,0,0,1,10.5,43h-4a.5.5,0,0,0-.5.5v2a.5.5,0,0,0,.5.5h4A5.51,5.51,0,0,0,15.973,39.942Z" transform="translate(0 -31.996)"/></g></g></svg>