<svg xmlns="http://www.w3.org/2000/svg" viewBox="0 0 15 8.94"><path d="M13.81 2.67a7.84 7.84 0 00-1.72-1.42A8.81 8.81 0 0010 .33a9.22 9.22 0 00-4.89 0 8.72 8.72 0 00-2.15.92 7.84 7.84 0 00-1.77 1.42A6.79 6.79 0 000 4.47a7 7 0 001.19 1.8 7.53 7.53 0 001.72 1.41 8 8 0 002.15.92 8.71 8.71 0 002.44.34A8.84 8.84 0 0010 8.6a8.1 8.1 0 002.14-.92 7.53 7.53 0 001.72-1.41A7 7 0 0015 4.47a6.79 6.79 0 00-1.19-1.8zm-4.3 3.12a2.16 2.16 0 01-.27.33 2.44 2.44 0 01-3.44 0 3.37 3.37 0 01-.29-.35 2.24 2.24 0 01-.22-.4 2.29 2.29 0 010-1.85 2.24 2.24 0 01.22-.4 3.37 3.37 0 01.29-.35 2.44 2.44 0 011.71-.7 2.41 2.41 0 012 1 2.35 2.35 0 010 2.72z" fill="#0d0905"/></svg>